<svg xmlns="http://www.w3.org/2000/svg" width="682.667" height="682.667" viewBox="0 0 512 512" preserveAspectRatio="xMidYMid meet" xmlns:v="https://vecta.io/nano"><path d="M7.3 41.1c-1.7.5-4.1 2.1-5.2 3.5L0 47.3V256v208.7l2 2.6c1.2 1.5 3.8 3.1 5.8 3.7 5.2 1.4 491.2 1.4 496.4 0 2-.6 4.6-2.2 5.8-3.7l2-2.6V256 47.3l-2-2.6c-1.2-1.5-3.8-3.1-5.8-3.7-4.8-1.3-492.3-1.2-496.9.1zM491 256v194H256 21V256 62h235 235v194zM118.5 102.9c-3.9 1.7-5.8 4.9-5.8 9.8 0 3.9.4 5 3.2 7.5l3.2 2.9 40.4-.3c39.8-.3 40.5-.3 42.6-2.4 1.3-1.3 2.3-3.9 2.6-6.6.5-4 .2-4.9-2.5-7.9l-3-3.4-39.4-.2c-21.6-.1-40.2.2-41.3.6zm194.9.1c-3.2 1.3-6.4 5.9-6.4 9.2 0 4.1 2.6 8.7 5.6 9.8 1.5.6 19.1 1 41.4 1h39l3.2-2.8c2.7-2.5 3.1-3.6 3.1-7.6 0-3.8-.5-5.3-2.7-7.4l-2.6-2.7-39.3-.2c-21.5-.1-40.2.2-41.3.7zm-214 20.1c-1.7.5-3.9 1.8-5 3-1.8 2-1.9 4.3-1.9 58.5 0 56.2 0 56.3 2.1 58.5 1.3 1.3 3.9 2.3 6.6 2.6 4 .5 4.9.2 7.9-2.5l3.4-3v-56.1c0-55 0-56.1-2-58.1-2.7-2.7-7.3-3.9-11.1-2.9zm112.9-.4c-3 .6-7.1 5.6-7.8 9.6-.3 1.8-.5 26.5-.3 54.9.3 50.7.3 51.7 2.4 54.5 4.1 5.5 12.7 5.5 16.8 0 2.1-2.8 2.1-3.5 2.1-57.7 0-53.4-.1-54.8-2-57-1.7-1.9-7.8-5.3-8.7-4.9-.2.1-1.3.4-2.5.6zm82.1 0c-1.2.2-3.4 1.8-5 3.4l-2.9 3v55.4V240l2.6 2.6c3.1 3 9.2 4.1 12.9 2.2 1.4-.7 3.3-2.9 4.3-4.8 1.6-3.2 1.7-7.5 1.5-57.1-.3-52.1-.4-53.8-2.3-55.9-1.7-1.9-7.8-5.3-8.7-4.9-.2.1-1.3.4-2.4.6zm112 .4c-1.7.5-3.9 1.8-5 3-1.8 2-1.9 4.3-1.9 58.1v56l3.3 2.9c2.1 1.9 4.3 2.9 6.3 2.9 4 0 9.5-3.4 10.3-6.3 1-3.8.7-108.4-.4-111.1-1.7-4.5-7.4-7-12.6-5.5zM120.5 245.7c-3.8 1-6.5 3.6-7.6 7.3-.9 3.1-.8 4.3.7 7.5 3.1 6.6 3.6 6.6 47 6.3l38.4-.3 2.6-2.6c3-3.1 4.1-9.2 2.2-12.9-.7-1.4-2.9-3.3-4.8-4.2-3.2-1.6-7.1-1.8-40-1.7l-38.5.6zm193.9 0c-5.4 1-9 9.9-6.2 15.3.7 1.4 2.9 3.3 4.8 4.3 3.2 1.6 6.8 1.7 41.5 1.5 42.7-.3 42.4-.3 44.6-7.8.9-3.1.8-4.3-.7-7.5-3-6.4-3.7-6.5-45.1-6.4l-38.9.6zM96.5 268c-1.6 1.1-3.3 2.7-3.7 3.7-.3 1-.7 26.1-.7 55.8-.1 41.1.2 54.6 1.2 56.5 1.9 3.8 7.5 6.2 11.8 5 2-.6 4.5-2 5.5-3.1 1.8-2 1.9-4.5 1.9-58.1v-56l-3.3-2.9c-3.9-3.5-8.3-3.8-12.7-.9zm113.5-.8c-1.4.7-3.3 2.9-4.3 4.8-1.6 3.2-1.7 7.5-1.5 57.1.3 52.1.4 53.8 2.3 55.9 2.7 3 7.4 4.9 10.7 4.3 1.4-.3 3.9-1.8 5.5-3.5l2.8-2.9v-55.4V272l-2.6-2.6c-3.1-3-9.2-4.1-12.9-2.2zm82 .1c-1.4.7-3.3 2.8-4.3 4.7-1.6 3.2-1.7 7.5-1.5 57.1.3 52.1.4 53.8 2.3 55.9 4.3 4.8 10.6 5.7 14.9 2.1 4.5-3.8 4.6-5.1 4.6-59.8 0-47.3-.2-52.1-1.8-55.3-1.8-3.8-5.3-6-9.2-6-1.4 0-3.6.6-5 1.3zm110.9 1.5l-3.4 3v56c0 53.8.1 56.1 1.9 58.1 3.9 4.3 11.8 4.4 16.1.1 2-2 2-3.1 2-58.5 0-56.3 0-56.4-2.1-58.6-1.3-1.3-3.9-2.3-6.6-2.6-4-.5-4.9-.2-7.9 2.5zm-287.1 123c-2.7 2.5-3.1 3.6-3.1 7.6 0 3.8.5 5.3 2.7 7.4l2.6 2.7h40.6 40.6l2.9-3.3c4.6-5.1 3.1-14-2.7-16.2-1.5-.6-19.1-1-41.4-1h-39l-3.2 2.8zm196.2-1.5c-5.6 2.8-6.7 10.8-2.1 15.9l2.9 3.3h40.6H394l2.6-2.7c2.2-2.1 2.7-3.6 2.7-7.4 0-4-.4-5.1-3.1-7.6L393 389h-39.3c-29.4 0-39.8.3-41.7 1.3z"/></svg>