<?xml version="1.0" standalone="no"?>
<!DOCTYPE svg PUBLIC "-//W3C//DTD SVG 20010904//EN"
 "http://www.w3.org/TR/2001/REC-SVG-20010904/DTD/svg10.dtd">
<svg version="1.0" xmlns="http://www.w3.org/2000/svg"
 width="512.000000pt" height="512.000000pt" viewBox="0 0 512.000000 512.000000"
 preserveAspectRatio="xMidYMid meet">
<metadata>
Created by potrace 1.15, written by Peter Selinger 2001-2017
</metadata>
<g transform="translate(0.000000,512.000000) scale(0.100000,-0.100000)"
fill="#000000" stroke="none">
<path d="M73 4709 c-17 -5 -41 -21 -52 -35 l-21 -27 0 -2087 0 -2087 20 -26
c12 -15 38 -31 58 -37 52 -14 4912 -14 4964 0 20 6 46 22 58 37 l20 26 0 2087
0 2087 -20 26 c-12 15 -38 31 -58 37 -48 13 -4923 12 -4969 -1z m4837 -2149
l0 -1940 -2350 0 -2350 0 0 1940 0 1940 2350 0 2350 0 0 -1940z"/>
<path d="M1185 4091 c-39 -17 -58 -49 -58 -98 0 -39 4 -50 32 -75 l32 -29 404
3 c398 3 405 3 426 24 13 13 23 39 26 66 5 40 2 49 -25 79 l-30 34 -394 2
c-216 1 -402 -2 -413 -6z"/>
<path d="M3134 4090 c-32 -13 -64 -59 -64 -92 0 -41 26 -87 56 -98 15 -6 191
-10 414 -10 l390 0 32 28 c27 25 31 36 31 76 0 38 -5 53 -27 74 l-26 27 -393
2 c-215 1 -402 -2 -413 -7z"/>
<path d="M994 3889 c-17 -5 -39 -18 -50 -30 -18 -20 -19 -43 -19 -585 0 -562
0 -563 21 -585 13 -13 39 -23 66 -26 40 -5 49 -2 79 25 l34 30 0 561 c0 550 0
561 -20 581 -27 27 -73 39 -111 29z"/>
<path d="M2123 3893 c-30 -6 -71 -56 -78 -96 -3 -18 -5 -265 -3 -549 3 -507 3
-517 24 -545 41 -55 127 -55 168 0 21 28 21 35 21 577 0 534 -1 548 -20 570
-17 19 -78 53 -87 49 -2 -1 -13 -4 -25 -6z"/>
<path d="M2944 3893 c-12 -2 -34 -18 -50 -34 l-29 -30 0 -554 0 -555 26 -26
c31 -30 92 -41 129 -22 14 7 33 29 43 48 16 32 17 75 15 571 -3 521 -4 538
-23 559 -17 19 -78 53 -87 49 -2 -1 -13 -4 -24 -6z"/>
<path d="M4064 3889 c-17 -5 -39 -18 -50 -30 -18 -20 -19 -43 -19 -581 l0
-560 33 -29 c21 -19 43 -29 63 -29 40 0 95 34 103 63 10 38 7 1084 -4 1111
-17 45 -74 70 -126 55z"/>
<path d="M1205 2663 c-38 -10 -65 -36 -76 -73 -9 -31 -8 -43 7 -75 31 -66 36
-66 470 -63 l384 3 26 26 c30 31 41 92 22 129 -7 14 -29 33 -48 42 -32 16 -71
18 -400 17 -201 -1 -374 -4 -385 -6z"/>
<path d="M3144 2663 c-54 -10 -90 -99 -62 -153 7 -14 29 -33 48 -43 32 -16 68
-17 415 -15 427 3 424 3 446 78 9 31 8 43 -7 75 -30 64 -37 65 -451 64 -202
-1 -378 -4 -389 -6z"/>
<path d="M965 2440 c-16 -11 -33 -27 -37 -37 -3 -10 -7 -261 -7 -558 -1 -411
2 -546 12 -565 19 -38 75 -62 118 -50 20 6 45 20 55 31 18 20 19 45 19 581 l0
560 -33 29 c-39 35 -83 38 -127 9z"/>
<path d="M2100 2448 c-14 -7 -33 -29 -43 -48 -16 -32 -17 -75 -15 -571 3 -521
4 -538 23 -559 27 -30 74 -49 107 -43 14 3 39 18 55 35 l28 29 0 554 0 555
-26 26 c-31 30 -92 41 -129 22z"/>
<path d="M2920 2447 c-14 -7 -33 -28 -43 -47 -16 -32 -17 -75 -15 -571 3 -521
4 -538 23 -559 43 -48 106 -57 149 -21 45 38 46 51 46 598 0 473 -2 521 -18
553 -18 38 -53 60 -92 60 -14 0 -36 -6 -50 -13z"/>
<path d="M4029 2432 l-34 -30 0 -560 c0 -538 1 -561 19 -581 39 -43 118 -44
161 -1 20 20 20 31 20 585 0 563 0 564 -21 586 -13 13 -39 23 -66 26 -40 5
-49 2 -79 -25z"/>
<path d="M1158 1202 c-27 -25 -31 -36 -31 -76 0 -38 5 -53 27 -74 l26 -27 406
0 406 0 29 33 c46 51 31 140 -27 162 -15 6 -191 10 -414 10 l-390 0 -32 -28z"/>
<path d="M3120 1217 c-56 -28 -67 -108 -21 -159 l29 -33 406 0 406 0 26 27
c22 21 27 36 27 74 0 40 -4 51 -31 76 l-32 28 -393 0 c-294 0 -398 -3 -417
-13z"/>
</g>
</svg>
