<svg xmlns="http://www.w3.org/2000/svg" width="550.801" height="550.801" xmlns:v="https://vecta.io/nano"><path d="M475.095 132c-.031-2.529-.828-5.023-2.562-6.995L366.325 3.694c-.021-.031-.053-.042-.085-.074-.633-.709-1.36-1.292-2.141-1.803l-.707-.422c-.686-.369-1.392-.67-2.13-.892l-.58-.195C359.87.119 359.048 0 358.204 0H97.2C85.293 0 75.6 9.695 75.6 21.601v507.6c0 11.913 9.692 21.601 21.6 21.601h356.4c11.918 0 21.6-9.688 21.6-21.601V133.21c0-.406-.063-.812-.105-1.21zM204.707 515.152l-9.06-30.138H162.01l-8.363 30.138h-27.535l35.898-117.45h34.857l36.418 117.45h-28.578zm72.998 1.75c-13.413 0-26.66-3.49-33.278-7.15l5.4-21.953c7.137 3.665 18.122 7.314 29.449 7.314 12.197 0 18.646-5.053 18.646-12.72 0-7.31-5.579-11.502-19.688-16.548-19.519-6.803-32.244-17.604-32.244-34.679 0-20.039 16.735-35.385 44.439-35.385 13.247 0 23.003 2.795 29.975 5.928l-5.928 21.441c-4.704-2.262-13.067-5.574-24.563-5.574-11.504 0-17.083 5.227-17.083 11.322 0 7.499 6.621 10.811 21.788 16.554 20.734 7.678 30.496 18.478 30.496 35.031-.001 19.693-15.162 36.419-47.409 36.419zm138.887-55.591c-9.065 8.543-22.486 12.371-38.164 12.371-3.486 0-6.629-.169-9.065-.527v41.998h-26.314v-115.88c8.185-1.402 19.686-2.437 35.896-2.437 16.385 0 28.06 3.133 35.896 9.397 7.499 5.928 12.551 15.684 12.551 27.189s-3.83 21.265-10.8 27.889zM97.2 366.758V21.605h250.204v110.519a10.8 10.8 0 0 0 10.8 10.8H453.6l.011 223.834H97.2zm81.367 50.814h-.351c-1.743 6.972-3.483 15.852-5.4 22.654l-6.977 24.912h25.969l-7.322-24.912c-2.086-6.981-4.179-15.682-5.919-22.654zm201.775-.701c-5.4 0-9.065.521-10.979 1.049v34.668c2.268.538 5.052.707 8.886.707 14.117 0 22.829-7.146 22.829-19.164-.001-10.811-7.495-17.26-20.736-17.26zm-248.88-196.673l98.442-50.799v24.15l-74.448 36.223v.454l74.448 36.218v24.145l-98.442-50.799v-19.592zm113.672 79.507l43.903-165.153h20.704l-43.889 165.153h-20.718zm174.97-59.241l-98.444 50.124v-24.149l76.096-36.218v-.454l-76.096-36.218v-24.15l98.444 50.119v20.946z"/></svg>