<?xml version="1.0" encoding="iso-8859-1"?>
<!-- Generator: Adobe Illustrator 16.0.0, SVG Export Plug-In . SVG Version: 6.00 Build 0)  -->
<!DOCTYPE svg PUBLIC "-//W3C//DTD SVG 1.1//EN" "http://www.w3.org/Graphics/SVG/1.1/DTD/svg11.dtd">
<svg version="1.1" id="Capa_1" xmlns="http://www.w3.org/2000/svg" xmlns:xlink="http://www.w3.org/1999/xlink" x="0px" y="0px"
	 width="22.13px" height="22.131px" viewBox="0 0 22.13 22.131" style="enable-background:new 0 0 22.13 22.131;"
	 xml:space="preserve">
<g>
	<path style="fill:#121111;" d="M20.939,10.092c-0.816,0.06-1.597,0.146-2.23-0.593c-0.272-0.315-0.725-0.207-1.149-0.077
		c-1.009,0.31-2.127,1.721-2.997-0.2c-0.011-0.025-0.097-0.018-0.146-0.025c-1.57-0.223-2.801-1.228-3.645-2.341
		C9.624,5.347,7.952,5.597,6.54,5.077C6.062,4.902,4.624,4.931,5.002,6.398c0.145,0.56-0.357,0.613-0.61,0.894
		c-1.099,1.21-2.878,1.458-3.879,2.811c-0.429,0.583-0.829,1.352-0.143,1.705c1.12,0.569,2.006,1.544,3.351,1.762
		c2.192,0.354,4.438,0.516,6.412,1.77c2.568,1.632,5.598,1.263,8.133,1.786c1.388,0.013,2.551,0.013,2.93-1.271
		c0.158-0.539,0.641-1.156,0.613-1.368c-0.164-1.302,0.519-2.525,0.266-3.776C21.988,10.282,21.436,10.057,20.939,10.092z"/>
</g>
<g>
</g>
<g>
</g>
<g>
</g>
<g>
</g>
<g>
</g>
<g>
</g>
<g>
</g>
<g>
</g>
<g>
</g>
<g>
</g>
<g>
</g>
<g>
</g>
<g>
</g>
<g>
</g>
<g>
</g>
</svg>
