<svg xmlns="http://www.w3.org/2000/svg" width="132" height="123" xmlns:v="https://vecta.io/nano"><path d="M53 0l3.875 4.625c3.579 4.48 7.242 8.857 11 13.188 7.933 9.214 15.586 18.565 22.25 28.75l1.147 1.732C93.311 51.498 94.536 54.221 95 58l3.25-.187c5.792-.031 11.211 1.637 16.75 3.188v2l2.246.75c6.195 2.812 10.494 8.982 13.254 15.063 3.054 8.808 2.189 17.164-1.285 25.695-1.738 3.566-3.652 6.458-6.215 9.492h-2v2l-5.687 2.938-3.199 1.652c-7.994 3.621-15.625 2.959-23.785.344-2.141-.859-3.83-1.792-5.703-3.121-2.642-2.191-2.642-2.191-6.625-1.812-2.615 1.013-2.615 1.013-5.312 2.375-11.502 5.612-24.859 6.838-37.187 3-13.831-5.475-24.215-14.406-30.687-27.84-4.844-11.993-4.762-27.25.047-39.238 3.303-6.651 3.303-6.651 6.875-7.906 2.869-.495 5.606-.485 8.516-.453l3.266.027L24 46l.188-3.687C26.075 26.039 36.096 12.614 48 2c3-2 3-2 5-2zm-4.602 14.477c-7.79 8.271-15.028 19.822-15.523 31.461L33 48l2.852 1.285c11.811 5.491 17.307 11.277 22.242 23.402 1.139 4.165 1.199 7.955 1.156 12.25l.023 2.342c-.017 4.944-.7 9.033-2.273 13.721l4.688 3.563 2.637 2.004c2.591 1.708 2.591 1.708 5.508 1.148L72 107l-.656-1.766c-3.051-8.984-3.882-18.154-.375-27.148C74.69 70.559 80.24 65.807 87 61c-4.516-10.888-11.423-19.119-19-28l-3.078-3.664-5.535-6.539-4.367-5.156L51 13c-1.241-.113-1.241-.113-2.602 1.477zM12.063 56.563C7.831 66.271 7.246 77.918 10.625 88c4.002 9.328 11.759 19.071 21.375 23 3.411.076 5.317-.426 7.941-2.633 1.747-1.743 3.426-3.517 5.059-5.367l-2.562-2.812C32.152 88.038 26.126 74.172 24.324 58.379c-.073-2.33-.073-2.33-1.324-3.379-5.845-.743-5.845-.743-10.937 1.563zM33 57c.317 12.509 4.71 24.56 13 34 1.302 1.04 2.628 2.054 4 3 2.638-5.276 1.632-13.319.316-18.902-2.729-7.35-6.622-12.95-13.691-16.535L33 57zm18 52c-1.382 1.626-2.719 3.293-4 5l4.375.125 2.461.07c2.377.018 2.377.018 4.164-2.195-3.254-2.259-3.254-2.259-7-3z" fill="#060606"/><path d="M89.592 93.886l3.412.016 3.682.01 3.877.025 3.889.014L114 94v8c-1 1-1 1-3.5 1.114l-3.285-.016-3.545-.01-3.732-.025-3.744-.014L87 103c-1.366-2.732-1.128-4.982-1-8 1-1 1-1 3.592-1.114z" fill="#cdcdcd"/><path d="M111 79h2l.063 6.438.035 3.621C113 92 113 92 112 93l-5.348.098-3.271-.01-3.443-.025-3.455-.014L88 93l-1-7c3.062-1.777 5.24-2.241 8.766-2.195l2.695.02 2.789.051 2.836.027L111 84v-5zm-22 8l-1 3h4v-3h-3z" fill="#ddd"/><path d="M89.5 76.886l3.285.016 3.545.01 3.732.025 3.744.014L113 77v2h-2v5l-1.772.076-7.978.362-2.789.119-2.695.127-2.476.111c-2.193.197-4.174.608-6.29 1.205l1 6-2-1-.062-6.437-.035-3.621c.129-3.897.129-3.897 3.598-4.055zM89 87h3v3l-4-1 1-2z" fill="#b8b8b8"/><path d="M126 74h2c4.629 9.341 5.665 17.824 2.313 27.813-1.88 4.618-4.096 8.379-7.312 12.188h-2v2l-5.687 2.938-3.199 1.652c-7.977 3.613-15.638 2.987-23.777.332C83.811 119.136 80.747 117.12 78 113c3.563.57 6.2 2.196 9.219 4.063 6.426 3.382 15.56 2.976 22.418 1.289 7.969-3.255 14.16-8.681 17.672-16.555 2.844-7.391 3.04-17.263.191-24.734L126 74z" fill="#dcdcdc"/><path d="M78 113c3.563.57 6.2 2.196 9.219 4.063 3.214 1.691 6.225 2.06 9.82 1.965l2.258-.037 4.68-.117c2.008-.03 4.017.042 6.023.127l2 2c-9.914 2.832-18.559 2.859-27.898-1.984-2.769-1.756-4.263-3.257-6.102-6.016z" fill="#f5f5f5"/><path d="M90 80h20v4H90v-4z"/><path d="M78 113c4.228.676 7.442 2.717 11 5l1 3c-5.196-1.361-8.136-3.412-12-7v-1z" fill="#dedede"/><path d="M86 95l1 4 5-2v4l-5 2c-1.354-2.709-1.065-5.009-1-8z" fill="#7d7d7d"/><path d="M86 78h1l1 14-2-1V78zm3 9h3v3l-4-1 1-2z" fill="#636363"/><path d="M87 77c3 2 3 2 3.688 5.125L91 85l-4 1v-9z" fill="#c6c6c6"/></svg>