<svg xmlns="http://www.w3.org/2000/svg" width="132" height="124" xmlns:v="https://vecta.io/nano"><path d="M53 0l3.875 4.625c3.579 4.48 7.242 8.857 11 13.188 7.928 9.208 15.58 18.536 22.188 28.75l1.122 1.732C93.161 51.429 94.747 54.513 96 58l2.895.191c10.113.958 17.78 3.133 25.008 10.836 7.147 9.104 9.007 17.688 7.895 29.047-1.452 7.782-6.634 14.514-12.734 19.363-8.339 5.607-16.023 6.589-26.062 5.563-5.983-1.564-11.048-4.352-16-8l-2.379 1.242-3.184 1.633-3.129 1.617c-10.644 4.851-23.615 5.367-34.809 1.883-13.831-5.475-24.215-14.406-30.687-27.84-4.844-11.993-4.762-27.25.047-39.238 3.303-6.651 3.303-6.651 6.875-7.906 2.869-.495 5.606-.485 8.516-.453l3.266.027L24 46l.188-3.687C26.075 26.039 36.096 12.614 48 2c3-2 3-2 5-2zm-4.602 14.477c-7.79 8.271-15.028 19.822-15.523 31.461L33 48l2.852 1.285c11.811 5.491 17.307 11.277 22.242 23.402 1.139 4.165 1.199 7.955 1.156 12.25l.023 2.342c-.017 4.944-.7 9.033-2.273 13.721l4.688 3.563 2.637 2.004c2.591 1.708 2.591 1.708 5.508 1.148L72 107l-.656-1.766c-3.347-9.854-3.657-18.968.328-28.691C75.262 69.668 80.108 65.375 87 62c-3.416-11.229-11.08-19.725-18.638-28.416-2.086-2.426-4.098-4.911-6.112-7.397C56.804 19.438 56.804 19.438 51 13c-1.241-.113-1.241-.113-2.602 1.477zM12.063 56.563C7.831 66.271 7.246 77.918 10.625 88c4.002 9.328 11.759 19.071 21.375 23 3.411.076 5.317-.426 7.941-2.633 1.747-1.743 3.426-3.517 5.059-5.367l-2.562-2.812C32.152 88.038 26.126 74.172 24.324 58.379c-.073-2.33-.073-2.33-1.324-3.379-5.845-.743-5.845-.743-10.937 1.563zM33 57c.317 12.509 4.71 24.56 13 34 1.302 1.04 2.628 2.054 4 3 2.638-5.276 1.632-13.319.316-18.902-2.729-7.35-6.622-12.95-13.691-16.535L33 57zm18 52c-1.382 1.626-2.719 3.293-4 5l4.375.125 2.461.07c2.377.018 2.377.018 4.164-2.195-3.254-2.259-3.254-2.259-7-3z" fill="#040404"/><path d="M111 73c3.64 2.123 5.433 4.138 7 8 .246 4.582-.446 8.141-2.937 12-3.646 3.536-6.682 3.335-11.582 3.285-3.512-.404-5.158-1.673-7.48-4.285-2.525-3.487-2.435-6.798-2-11 4.224-7.721 8.616-9.098 17-8z" fill="#d5d5d5"/><path d="M92.438 95.813c6.086.031 11.677.669 17.563 2.188v8l-11.937.063-3.443.025-3.271.01-3.031.016C86 106 86 106 85 105c-.133-1.812-.133-1.812-.125-4l-.008-2.187c.309-4.218 4.159-2.982 7.57-3z" fill="#c4c4c4"/><path d="M124 71c5.346 4.793 7.731 10.158 8.125 17.254.26 10.65-2.126 17.536-9.125 25.746-7.923 7.543-15.706 9.599-26.52 9.355-7.034-.718-13.425-3.3-18.48-8.355v-2c3.834 1.438 7.416 3.198 11.035 5.098 6.911 3.174 14.495 2.649 21.59.34 7.505-3.053 12.55-7.247 16.375-14.437 3.092-7.646 3.713-16.298.867-24.109-1.311-2.676-1.311-2.676-2.773-5.035C124 73 124 73 124 71z" fill="#d6d6d6"/><path d="M108 75l-4 6h4l2 4h5c-.187 2.813-.187 2.813-1 6-3.562 3.053-6.407 3.32-11 3v-4h4l-1-4-9-2c.34-3.059.857-4.804 2.688-7.312 2.937-2.143 4.758-2.011 8.313-1.687z" fill="#0e0e0e"/><path d="M95 83l1 2h10l1 5h-4v4h7v2c-7.953.624-7.953.624-11.937-1.75C94.823 90.716 94.823 90.716 94 88c.375-2.75.375-2.75 1-5z" fill="#d9d9d9"/><path d="M85 86h8l4 9H85v-9z" fill="#c2c2c2"/><path d="M78 113c3.834 1.438 7.416 3.198 11.035 5.098 4.521 2.076 8.804 2.025 13.715 1.965l2.113-.014L110 120l1 2c-8.484 2.57-17.957 1.854-25.934-1.852-2.644-1.47-4.924-3.006-7.066-5.148v-2z" fill="#f4f4f4"/><path d="M83 63l1 3-3.75 3.813-2.109 2.145C76.186 73.823 74.197 75.432 72 77c.592-3.57 1.972-5.458 4.375-8.125l1.836-2.07C80 65 80 65 83 63z" fill="#7a7a7a"/><path d="M99 74l2 1-.875 1.688L97 84h7v1c-7.75.125-7.75.125-10-1 .503-4.401 2.088-6.712 5-10z" fill="#acacac"/><path d="M115 84l2 2c-.062 2.875-.062 2.875-1 6-2.562 2.375-2.562 2.375-5 4l-2-3 1.875-.562c3.181-2.152 3.32-4.813 4.125-8.437z" fill="silver"/><path d="M78 113c3.791 1.45 7.387 3.152 11 5l-1 2c-4.385-.501-6.8-1.983-10-5v-2z" fill="#cfcfcf"/><path d="M110 120l1 2c-3.155.936-5.966 1.106-9.25 1.063l-2.703-.027L97 123c4.508-2.306 7.903-3.142 13-3z" fill="#fbfbfb"/><path d="M117 115l3 2c-6.4 4.062-6.4 4.062-9.437 3.75L109 120c2.626-1.751 5.288-3.387 8-5z" fill="#ebebeb"/></svg>