<svg xmlns="http://www.w3.org/2000/svg" width="96" height="87.467" viewBox="0 0 72 65.6" xmlns:v="https://vecta.io/nano"><path d="M21.559 53.164l-8.797 8.797-8.801-8.797zm0 0" fill="rgb(65%,65%,65%)"/><path d="M34.441 33.164c-1.84-2.16-1.762-3.363-.641-4.48 1.359-1.359 2.801-.801 4.398.719zm18.879-24c1.359-1.363 2.801-.801 4.398.719l-3.758 3.758c-1.922-2.16-1.84-3.277-.641-4.477zm11.359 3.84c-1.68 2.559-4.719 6.719-7.84 3.598l7.922-7.918-1.684-1.762c-4.238-4.238-9.039-4.32-12.797-.559-2.48 2.48-3.203 5.359-2.48 8.078l-2.48-2.801c-.641.32-3.68 3.043-1.441 7.043l-2.801-2.32-3.758 3.758 5.121 5.121c-3.922-3.121-8.16-2.801-11.52.559-3.602 3.602-3.363 8-.641 11.602l-.562-.559c-3.598-3.602-7.52-2.32-9.437-.402-1.52 1.52-2.402 3.52-2 4.961l-7.762-7.762-4.16 4.16 15.359 15.363h8.242l-5.52-5.523c-2.883-2.957-2.961-4.477-1.52-5.918 1.359-1.359 2.957-.48 5.758 2.238l5.441 5.441 4.078-4.078L33 40.121c3.762 2.801 8.238 2.961 12.238-1.039l.082-.078c2.48-2.242 3.199-4.48 3.199-4.48l-3.121-2.082c-1.68 2.563-4.637 6.723-7.758 3.602l7.918-7.922 4.961 4.961 4.32-4.32-6.16-6.16c-2.879-2.879-1.199-5.598 0-6.641.559 1.203 1.359 2.32 2.398 3.363 4 4 9.121 4.797 13.684.316l.078-.078c2.48-2.238 3.199-4.48 3.199-4.48zm0 0" fill="rgb(24%,24%,24%)"/></svg>