<?xml version="1.0" encoding="UTF-8"?>
<svg xmlns="http://www.w3.org/2000/svg" xmlns:xlink="http://www.w3.org/1999/xlink" width="72pt" height="65.599998pt" viewBox="0 0 72 65.599998" version="1.1">
<g id="surface1">
<path style=" stroke:none;fill-rule:nonzero;fill:rgb(65%,65%,65%);fill-opacity:1;" d="M 21.558594 53.164062 L 12.761719 61.960938 L 3.960938 53.164062 Z M 21.558594 53.164062 "/>
<path style=" stroke:none;fill-rule:nonzero;fill:rgb(24%,24%,24%);fill-opacity:1;" d="M 34.441406 33.164062 C 32.601562 31.003906 32.679688 29.800781 33.800781 28.683594 C 35.160156 27.324219 36.601562 27.882812 38.199219 29.402344 Z M 53.320312 9.164062 C 54.679688 7.800781 56.121094 8.363281 57.71875 9.882812 L 53.960938 13.640625 C 52.039062 11.480469 52.121094 10.363281 53.320312 9.164062 Z M 64.679688 13.003906 C 63 15.5625 59.960938 19.722656 56.839844 16.601562 L 64.761719 8.683594 C 64.039062 7.960938 63.558594 7.324219 63.078125 6.921875 C 58.839844 2.683594 54.039062 2.601562 50.28125 6.363281 C 47.800781 8.84375 47.078125 11.722656 47.800781 14.441406 L 45.320312 11.640625 C 44.679688 11.960938 41.640625 14.683594 43.878906 18.683594 L 41.078125 16.363281 L 37.320312 20.121094 L 42.441406 25.242188 C 38.519531 22.121094 34.28125 22.441406 30.921875 25.800781 C 27.320312 29.402344 27.558594 33.800781 30.28125 37.402344 L 29.71875 36.84375 C 26.121094 33.242188 22.199219 34.523438 20.28125 36.441406 C 18.761719 37.960938 17.878906 39.960938 18.28125 41.402344 L 10.519531 33.640625 L 6.359375 37.800781 L 21.71875 53.164062 L 29.960938 53.164062 L 24.441406 47.640625 C 21.558594 44.683594 21.480469 43.164062 22.921875 41.722656 C 24.28125 40.363281 25.878906 41.242188 28.679688 43.960938 L 34.121094 49.402344 L 38.199219 45.324219 L 33 40.121094 C 36.761719 42.921875 41.238281 43.082031 45.238281 39.082031 L 45.320312 39.003906 C 47.800781 36.761719 48.519531 34.523438 48.519531 34.523438 L 45.398438 32.441406 C 43.71875 35.003906 40.761719 39.164062 37.640625 36.042969 L 45.558594 28.121094 L 50.519531 33.082031 L 54.839844 28.761719 L 48.679688 22.601562 C 45.800781 19.722656 47.480469 17.003906 48.679688 15.960938 C 49.238281 17.164062 50.039062 18.28125 51.078125 19.324219 C 55.078125 23.324219 60.199219 24.121094 64.761719 19.640625 L 64.839844 19.5625 C 67.320312 17.324219 68.039062 15.082031 68.039062 15.082031 Z M 64.679688 13.003906 "/>
</g>
</svg>
