<?xml version="1.0" encoding="UTF-8"?>
<svg version="1.1" xmlns="http://www.w3.org/2000/svg" width="256" height="191">
<path d="M0 0 C0.78211393 -0.00568326 1.56422786 -0.01136651 2.3700422 -0.01722199 C4.98758443 -0.03012861 7.60358129 -0.0073336 10.22103882 0.0153656 C12.09866154 0.01350161 13.97628318 0.00946511 15.85389709 0.00341797 C20.95095931 -0.00656375 26.04746621 0.01462407 31.1444478 0.04189801 C36.47484813 0.06571028 41.80523711 0.06278291 47.13568115 0.0632019 C56.08529069 0.06783091 65.03468757 0.09148126 73.98422241 0.12767029 C84.33905511 0.16942976 94.69369635 0.18698658 105.04860842 0.19029003 C116.06414714 0.19388629 127.07961672 0.212755 138.09512663 0.23741031 C141.27376172 0.24364568 144.45239154 0.24727771 147.63103104 0.25044441 C152.6198471 0.25633484 157.60852566 0.27261958 162.59728432 0.29704857 C164.43110784 0.30450368 166.26494869 0.30856147 168.09878731 0.30902863 C170.59586764 0.31028171 173.09258247 0.32379032 175.58959961 0.34057617 C176.68613261 0.33695355 176.68613261 0.33695355 177.8048178 0.33325773 C181.48162453 0.37213547 183.0214049 0.51712333 186.16781616 2.61473083 C187.41759567 6.41534654 187.05381742 9.28316435 186.17172241 13.13426208 C185.94291382 14.15584412 185.71410522 15.17742615 185.47836304 16.22996521 C185.10807983 17.81261169 185.10807983 17.81261169 184.73031616 19.42723083 C184.36583374 21.03888123 184.36583374 21.03888123 183.99398804 22.68309021 C183.39421394 25.32915242 182.78522301 27.97273741 182.16781616 30.61473083 C183.18730347 30.63455017 184.20679077 30.65436951 185.25717163 30.67478943 C189.03314264 30.75075891 192.8087239 30.83948893 196.58432007 30.93211365 C198.21965856 30.97043936 199.8550824 31.0052859 201.49057007 31.03660583 C203.83902527 31.08217925 206.18689111 31.1401845 208.53500366 31.20066833 C209.63508255 31.21799515 209.63508255 31.21799515 210.75738525 31.235672 C215.94007275 31.38698742 215.94007275 31.38698742 218.16781616 33.61473083 C219.09862644 39.99743948 217.61712891 46.35812839 216.19589233 52.5532074 C215.98613266 53.50234009 215.77637299 54.45147278 215.56025696 55.42936707 C214.87000412 58.54025412 214.16588617 61.64780345 213.46078491 64.75535583 C212.9741444 66.92756848 212.488095 69.09991362 212.00260925 71.27238464 C210.98567678 75.81272677 209.96190778 80.35145735 208.93319702 84.8891449 C207.61583502 90.70245701 206.3151833 96.51935692 205.01954174 102.33754349 C204.0197668 106.8188392 203.01142268 111.29817268 202.00045204 115.77695465 C201.517443 117.92136811 201.03704446 120.0663713 200.55931664 122.21196747 C199.89084562 125.20795883 199.21093532 128.2011274 198.52792358 131.1938324 C198.33299316 132.07808899 198.13806274 132.96234558 197.93722534 133.87339783 C196.92316431 138.25927048 195.91612945 141.94342546 193.16781616 145.61473083 C190.81947347 146.78890218 189.44424138 146.73802135 186.82720947 146.73498535 C185.91573151 146.73636002 185.00425354 146.73773468 184.06515503 146.739151 C183.06246582 146.73555573 182.05977661 146.73196045 181.02670288 146.72825623 C179.97302521 146.72840225 178.91934753 146.72854828 177.83374023 146.72869873 C174.33830736 146.72800004 170.84292727 146.72020964 167.34750366 146.71238708 C164.92897572 146.71052275 162.5104474 146.70909892 160.09191895 146.70809937 C153.71653201 146.7042754 147.34116775 146.69444612 140.96578979 146.68339539 C134.46412462 146.67317869 127.96245579 146.66860119 121.46078491 146.66355896 C108.69645231 146.65282376 95.93213544 146.63594013 83.16781616 146.61473083 C83.04184052 147.39541931 82.91586487 148.17610779 82.78607178 148.98045349 C81.42689872 157.28873935 79.73051379 165.42127663 77.79281616 173.61473083 C77.64682983 174.26393494 77.50084351 174.91313904 77.35043335 175.58201599 C76.92091422 177.49199517 76.47040999 179.39721695 76.01937866 181.30223083 C75.63000122 182.97865662 75.63000122 182.97865662 75.23275757 184.68894958 C74.00331016 188.06668864 72.99131873 189.40573598 70.16781616 191.61473083 C67.04278564 192.10920715 67.04278564 192.10920715 63.31967163 192.10057068 C62.29948944 192.10626572 62.29948944 192.10626572 61.25869751 192.11207581 C59.0169929 192.11946864 56.77659245 192.09812325 54.53500366 192.07566833 C52.97609611 192.07328354 51.41718566 192.07237866 49.85827637 192.07289124 C46.594899 192.0697657 43.33196175 192.05321686 40.06869507 192.02635193 C35.8808201 191.99231576 31.69342731 191.98472504 27.50543022 191.98624229 C24.28842547 191.98569921 21.07152662 191.97474294 17.85455704 191.96023941 C16.30995612 191.95386599 14.76534319 191.94993124 13.22072983 191.948452 C11.0660011 191.94412781 8.91178966 191.9266485 6.75717163 191.90525818 C5.53013519 191.89763458 4.30309875 191.89001099 3.03887939 191.88215637 C0.16781616 191.61473083 0.16781616 191.61473083 -1.83218384 189.61473083 C-2.49281038 183.05254435 -0.72102424 176.90774421 0.79281616 170.55613708 C1.0591687 169.41184738 1.32552124 168.26755768 1.59994507 167.08859253 C2.44869091 163.44974079 3.30809323 159.81350302 4.16781616 156.17723083 C4.74664701 153.70408864 5.3247799 151.23078298 5.90219116 148.75730896 C7.3159857 142.70786578 8.73852772 136.66053093 10.16781616 130.61473083 C8.8558728 130.6356781 7.54392944 130.65662537 6.19223022 130.6782074 C1.32450272 130.75061054 -3.54317719 130.79653197 -8.4112854 130.8344574 C-10.51813766 130.85457209 -12.62493409 130.88186751 -14.7315979 130.91648865 C-17.76005831 130.96501252 -20.78778062 130.987701 -23.81655884 131.00535583 C-25.22926056 131.03632355 -25.22926056 131.03632355 -26.67050171 131.06791687 C-30.49963866 131.06923059 -33.07703399 131.03513222 -36.4581604 129.15281677 C-39.77086249 123.03361796 -37.57118944 115.14703491 -36.07559204 108.68040466 C-35.79503212 107.41470894 -35.79503212 107.41470894 -35.50880432 106.1234436 C-34.89257397 103.35410411 -34.26288655 100.58801648 -33.63296509 97.82176208 C-33.19571399 95.86969129 -32.75930243 93.91743228 -32.32368469 91.96499634 C-31.17504862 86.82757285 -30.01492986 81.69280908 -28.85238647 76.55851746 C-27.68822847 71.40760776 -26.53513876 66.25422367 -25.38101196 61.10105896 C-24.07291436 55.2661581 -22.76343354 49.43157566 -21.44798279 43.59832764 C-21.24698062 42.70659694 -21.04597845 41.81486624 -20.83888531 40.8961134 C-20.44019881 39.13453922 -20.03905255 37.37351975 -19.63531971 35.61309528 C-18.56561702 30.93795405 -17.54756873 26.25805593 -16.59301758 21.55793762 C-16.38346782 20.55888492 -16.17391806 19.55983221 -15.9580183 18.53050518 C-15.55741515 16.61717897 -15.17116553 14.70076995 -14.80190754 12.78114796 C-14.61754737 11.91582793 -14.4331872 11.05050791 -14.24324036 10.15896606 C-14.09090533 9.40043681 -13.93857031 8.64190756 -13.78161907 7.86039257 C-10.99407142 1.267116 -6.68367909 -0.12142738 0 0 Z " fill="#BCBCBC" transform="translate(37.832183837890625,-0.6147308349609375)"/>
<path d="M0 0 C0.78211393 -0.00568326 1.56422786 -0.01136651 2.3700422 -0.01722199 C4.98758443 -0.03012861 7.60358129 -0.0073336 10.22103882 0.0153656 C12.09866154 0.01350161 13.97628318 0.00946511 15.85389709 0.00341797 C20.95095931 -0.00656375 26.04746621 0.01462407 31.1444478 0.04189801 C36.47484813 0.06571028 41.80523711 0.06278291 47.13568115 0.0632019 C56.08529069 0.06783091 65.03468757 0.09148126 73.98422241 0.12767029 C84.33905511 0.16942976 94.69369635 0.18698658 105.04860842 0.19029003 C116.06414714 0.19388629 127.07961672 0.212755 138.09512663 0.23741031 C141.27376172 0.24364568 144.45239154 0.24727771 147.63103104 0.25044441 C152.6198471 0.25633484 157.60852566 0.27261958 162.59728432 0.29704857 C164.43110784 0.30450368 166.26494869 0.30856147 168.09878731 0.30902863 C170.59586764 0.31028171 173.09258247 0.32379032 175.58959961 0.34057617 C176.68613261 0.33695355 176.68613261 0.33695355 177.8048178 0.33325773 C181.48162453 0.37213547 183.0214049 0.51712333 186.16781616 2.61473083 C187.40600354 6.39480126 187.06497053 9.26457 186.20687866 13.09910583 C185.98258179 14.11617615 185.75828491 15.13324646 185.52719116 16.18113708 C185.16367554 17.75701599 185.16367554 17.75701599 184.79281616 19.36473083 C184.55820679 20.43078552 184.32359741 21.49684021 184.08187866 22.59519958 C182.31740822 30.46513878 182.31740822 30.46513878 181.16781616 31.61473083 C179.78549715 31.71357612 178.39819113 31.74380726 177.01234436 31.74603271 C176.11643585 31.75004089 175.22052734 31.75404907 174.29747009 31.75817871 C173.30682053 31.75764999 172.31617096 31.75712128 171.29550171 31.75657654 C170.2581488 31.76005096 169.2207959 31.76352539 168.15200806 31.7671051 C165.89080534 31.77447765 163.62959531 31.779815 161.36838341 31.78339577 C157.79241878 31.79053628 154.21659337 31.80618451 150.64067078 31.82473755 C140.47045806 31.87732188 130.30032009 31.92520163 120.12997437 31.94065857 C113.91710857 31.95072217 107.70459012 31.98000773 101.49186134 32.02197838 C99.11997921 32.03431856 96.74804807 32.03940417 94.37613487 32.03717995 C91.05981579 32.03483548 87.74449827 32.05693 84.42831421 32.08470154 C83.44373734 32.07810013 82.45916046 32.07149872 81.44474792 32.06469727 C76.1599927 32.07854278 76.1599927 32.07854278 71.58834839 34.47328186 C69.8141539 37.14787586 69.17009829 39.44870417 68.49984741 42.58738708 C68.24654663 43.73400818 67.99324585 44.88062927 67.73226929 46.06199646 C67.48412476 47.2550238 67.23598022 48.44805115 66.98031616 49.67723083 C66.46683964 52.04330009 65.95255461 54.40919408 65.43734741 56.77488708 C65.21667603 57.82297546 64.99600464 58.87106384 64.76864624 59.95091248 C64.16781616 62.61473083 64.16781616 62.61473083 63.16781616 65.61473083 C62.19433228 65.62407654 61.22084839 65.63342224 60.21786499 65.64305115 C56.59256897 65.68304176 52.96811353 65.74882409 49.34335327 65.82225037 C47.7770572 65.85040777 46.21062041 65.87164836 44.64413452 65.88572693 C42.38697551 65.90723051 40.13149878 65.95391272 37.87484741 66.00535583 C37.17881912 66.00658447 36.48279083 66.00781311 35.76567078 66.00907898 C32.32552624 66.11181137 30.24900801 66.5657546 27.28329468 68.35472107 C25.00044429 70.7935377 24.31623051 72.15695562 23.61312866 75.38426208 C23.39422974 76.34114929 23.17533081 77.2980365 22.94979858 78.28392029 C22.73299438 79.32121277 22.51619019 80.35850525 22.29281616 81.42723083 C22.05087524 82.50641785 21.80893433 83.58560486 21.55966187 84.69749451 C21.03278592 87.05483461 20.51437172 89.4140777 20.00326538 91.77488708 C19.11392072 95.86244199 18.19424799 99.94225082 17.26547241 104.02098083 C15.77276119 110.58150794 14.29521837 117.14521146 12.82870483 123.71165466 C12.30286702 126.02149486 11.7471105 128.31803816 11.16781616 130.61473083 C4.83250601 130.71614547 -1.50259486 130.78620198 -7.83853149 130.8344574 C-9.99388451 130.85457359 -12.14918294 130.88187008 -14.30435181 130.91648865 C-17.40230779 130.96500569 -20.4995423 130.98769957 -23.59780884 131.00535583 C-24.56148376 131.02600098 -25.52515869 131.04664612 -26.51803589 131.06791687 C-30.39507878 131.06921745 -33.04498336 131.05070535 -36.47183228 129.15281677 C-39.75873283 123.02025788 -37.57186365 115.14995002 -36.07559204 108.68040466 C-35.79503212 107.41470894 -35.79503212 107.41470894 -35.50880432 106.1234436 C-34.89257397 103.35410411 -34.26288655 100.58801648 -33.63296509 97.82176208 C-33.19571399 95.86969129 -32.75930243 93.91743228 -32.32368469 91.96499634 C-31.17504862 86.82757285 -30.01492986 81.69280908 -28.85238647 76.55851746 C-27.68822847 71.40760776 -26.53513876 66.25422367 -25.38101196 61.10105896 C-24.07291436 55.2661581 -22.76343354 49.43157566 -21.44798279 43.59832764 C-21.24698062 42.70659694 -21.04597845 41.81486624 -20.83888531 40.8961134 C-20.44019881 39.13453922 -20.03905255 37.37351975 -19.63531971 35.61309528 C-18.56561702 30.93795405 -17.54756873 26.25805593 -16.59301758 21.55793762 C-16.38346782 20.55888492 -16.17391806 19.55983221 -15.9580183 18.53050518 C-15.55741515 16.61717897 -15.17116553 14.70076995 -14.80190754 12.78114796 C-14.61754737 11.91582793 -14.4331872 11.05050791 -14.24324036 10.15896606 C-14.09090533 9.40043681 -13.93857031 8.64190756 -13.78161907 7.86039257 C-10.99407142 1.267116 -6.68367909 -0.12142738 0 0 Z " fill="#5F5F5F" transform="translate(37.832183837890625,-0.6147308349609375)"/>
<path d="M0 0 C4.94790177 -0.0493651 9.89566083 -0.08570269 14.84375 -0.10986328 C16.52769466 -0.11993317 18.21162179 -0.13358988 19.89550781 -0.15087891 C22.31319501 -0.17508426 24.73065143 -0.18647296 27.1484375 -0.1953125 C27.9036972 -0.20563507 28.65895691 -0.21595764 29.43710327 -0.22659302 C31.2929398 -0.22699318 33.1481928 -0.12222716 35 0 C37 2 37 2 37.26463795 3.81466293 C37.22030233 9.73551153 36.34983253 15.17702544 35.02807617 20.93847656 C34.8183165 21.88760925 34.60855682 22.83674194 34.3924408 23.81463623 C33.70218796 26.92552329 32.99807001 30.03307262 32.29296875 33.140625 C31.80632824 35.31283764 31.32027883 37.48518279 30.83479309 39.65765381 C29.81786062 44.19799593 28.79409161 48.73672651 27.76538086 53.27441406 C26.44801886 59.08772617 25.14736714 64.90462608 23.85172558 70.72281265 C22.85195064 75.20410836 21.84360652 79.68344184 20.83263588 84.16222382 C20.34962683 86.30663727 19.8692283 88.45164046 19.39150047 90.59723663 C18.72302946 93.59322799 18.04311916 96.58639657 17.36010742 99.57910156 C17.165177 100.46335815 16.97024658 101.34761475 16.76940918 102.25866699 C15.75534815 106.64453964 14.74831329 110.32869463 12 114 C9.65165731 115.17417134 8.27642522 115.12329052 5.65939331 115.12025452 C4.74791534 115.12162918 3.83643738 115.12300385 2.89733887 115.12442017 C1.89464966 115.12082489 0.89196045 115.11722961 -0.14111328 115.11352539 C-1.19479095 115.11367142 -2.24846863 115.11381744 -3.33407593 115.1139679 C-6.8295088 115.1132692 -10.3248889 115.10547881 -13.8203125 115.09765625 C-16.23884044 115.09579192 -18.65736876 115.09436809 -21.07589722 115.09336853 C-27.45128415 115.08954456 -33.82664841 115.07971529 -40.20202637 115.06866455 C-46.70369154 115.05844785 -53.20536037 115.05387035 -59.70703125 115.04882812 C-72.47136386 115.03809293 -85.23568072 115.0212093 -98 115 C-97.71561048 113.10306139 -97.42216208 111.20747973 -97.125 109.3125 C-96.96257812 108.25675781 -96.80015625 107.20101562 -96.6328125 106.11328125 C-96.04106931 103.20205086 -95.1968194 100.71044393 -94 98 C-93.15697327 97.99635437 -92.31394653 97.99270874 -91.44537354 97.98895264 C-83.49966595 97.95108216 -75.55436921 97.89424051 -67.60895157 97.81609726 C-63.52411545 97.7765918 -59.43949589 97.74441863 -55.35449219 97.72900391 C-51.41200324 97.71385714 -47.47010951 97.67944794 -43.52788544 97.63169098 C-42.02405725 97.61685653 -40.5201441 97.6089578 -39.01624298 97.60811615 C-36.9089466 97.60575073 -34.80330091 97.57871062 -32.69628906 97.54589844 C-30.89759369 97.53257477 -30.89759369 97.53257477 -29.06256104 97.51898193 C-25.40685294 96.89948523 -24.24833467 95.88675354 -22 93 C-21.05402137 90.83786555 -21.05402137 90.83786555 -20.578125 88.44140625 C-20.36164307 87.5174707 -20.14516113 86.59353516 -19.92211914 85.64160156 C-19.70031982 84.62549805 -19.47852051 83.60939453 -19.25 82.5625 C-19.0017749 81.4806543 -18.7535498 80.39880859 -18.49780273 79.28417969 C-17.64417021 75.52725709 -16.81693889 71.76502761 -16 68 C-15.84726624 67.29615173 -15.69453247 66.59230347 -15.53717041 65.86712646 C-14.03113658 58.91574074 -12.5358008 51.96206123 -11.04760742 45.00683594 C-8.84571324 34.74367233 -6.52577459 24.51611401 -4.0625 14.3125 C-3.76802979 13.08950195 -3.47355957 11.86650391 -3.17016602 10.60644531 C-1.13381923 2.26763845 -1.13381923 2.26763845 0 0 Z " fill="#909090" transform="translate(219,31)"/>
<path d="M0 0 C1.56047445 0.00015913 3.12095416 0.00585397 4.68139648 0.01586914 C5.5012352 0.01728409 6.32107391 0.01869904 7.16575623 0.02015686 C9.79470406 0.0257725 12.42356797 0.0383276 15.05249023 0.05102539 C16.8304838 0.05603838 18.60847869 0.06060163 20.38647461 0.06469727 C24.75434569 0.07574701 29.12215371 0.09302208 33.48999023 0.11352539 C33.40620117 1.10094727 33.32241211 2.08836914 33.23608398 3.10571289 C33.13424805 4.38704102 33.03241211 5.66836914 32.92749023 6.98852539 C32.82307617 8.26469727 32.71866211 9.54086914 32.61108398 10.85571289 C32.23315656 13.99996481 32.23315656 13.99996481 33.48999023 16.11352539 C50.81499023 16.60852539 50.81499023 16.60852539 68.48999023 17.11352539 C66.96629548 26.25569394 65.24228076 35.11838743 63.11499023 44.11352539 C62.96900391 44.76272949 62.82301758 45.41193359 62.67260742 46.08081055 C62.24308829 47.99078973 61.79258406 49.89601151 61.34155273 51.80102539 C60.95217529 53.47745117 60.95217529 53.47745117 60.55493164 55.18774414 C59.32548423 58.56548319 58.3134928 59.90453054 55.48999023 62.11352539 C52.36495972 62.60800171 52.36495972 62.60800171 48.6418457 62.59936523 C47.62166351 62.60506027 47.62166351 62.60506027 46.58087158 62.61087036 C44.33916698 62.6182632 42.09876652 62.5969178 39.85717773 62.57446289 C38.29827019 62.5720781 36.73935973 62.57117322 35.18045044 62.57168579 C31.91707307 62.56856026 28.65413582 62.55201142 25.39086914 62.52514648 C21.20299418 62.49111032 17.01560138 62.4835196 12.82760429 62.48503685 C9.61059954 62.48449377 6.39370069 62.47353749 3.17673111 62.45903397 C1.63213019 62.45266054 0.08751726 62.4487258 -1.4570961 62.44724655 C-3.61182483 62.44292237 -5.76603627 62.42544306 -7.9206543 62.40405273 C-9.14769073 62.39642914 -10.37472717 62.38880554 -11.63894653 62.38095093 C-14.51000977 62.11352539 -14.51000977 62.11352539 -16.51000977 60.11352539 C-17.16354247 53.5670744 -15.41753758 47.43047746 -13.92016602 41.09008789 C-13.65618515 39.94816986 -13.39220428 38.80625183 -13.120224 37.62973022 C-12.56310953 35.22683679 -12.00228856 32.82480005 -11.43798828 30.42358398 C-10.57106419 26.73237037 -9.71638221 23.03848061 -8.86352539 19.34399414 C-8.32061927 17.00919266 -7.77702377 14.67455135 -7.23266602 12.34008789 C-6.97534195 11.22977203 -6.71801788 10.11945618 -6.45289612 8.97549438 C-6.21272263 7.95708466 -5.97254913 6.93867493 -5.72509766 5.8894043 C-5.51413956 4.98896393 -5.30318146 4.08852356 -5.08583069 3.16079712 C-4.11364011 -0.29572591 -3.8649721 0.12500605 0 0 Z " fill="#939393" transform="translate(52.510009765625,128.886474609375)"/>
<path d="M0 0 C1.0859697 0.01061211 1.0859697 0.01061211 2.19387817 0.0214386 C4.48711226 0.04924016 6.77782737 0.1119405 9.0703125 0.17578125 C10.63277702 0.20088303 12.19528014 0.22369291 13.7578125 0.24414062 C17.57127055 0.29901851 21.38286576 0.38518213 25.1953125 0.48828125 C24.46511661 7.78234613 22.87842351 14.81544862 21.25390625 21.95703125 C20.96677261 23.23308228 20.67963898 24.5091333 20.38380432 25.82385254 C19.62600365 29.19139705 18.8636704 32.55789919 18.1003418 35.92419434 C17.31997775 39.36940993 16.54396942 42.81560614 15.76757812 46.26171875 C14.24771628 53.00486437 12.72305683 59.74691726 11.1953125 66.48828125 C10.8653125 65.82828125 10.5353125 65.16828125 10.1953125 64.48828125 C-2.0146875 64.48828125 -14.2246875 64.48828125 -26.8046875 64.48828125 C-25.45432937 56.38613246 -23.96769573 48.55350055 -21.9921875 40.61328125 C-20.39022133 34.14485442 -18.8154688 27.68845012 -17.51171875 21.15234375 C-17.30716064 20.1557373 -17.10260254 19.15913086 -16.8918457 18.13232422 C-16.51042566 16.2523437 -16.14720484 14.36854572 -15.80541992 12.48095703 C-15.62986572 11.63259277 -15.45431152 10.78422852 -15.2734375 9.91015625 C-15.13357422 9.1737793 -14.99371094 8.43740234 -14.84960938 7.67871094 C-11.72850642 1.13606242 -6.76579346 -0.2527273 0 0 Z " fill="#AFAFAF" transform="translate(75.8046875,64.51171875)"/>
<path d="M0 0 C4.78715623 -0.07415168 9.57397827 -0.12860204 14.36157227 -0.16479492 C15.99021223 -0.17988243 17.61881156 -0.20035506 19.24731445 -0.22631836 C21.58815535 -0.26270449 23.92845919 -0.2797262 26.26953125 -0.29296875 C26.99775589 -0.30845261 27.72598053 -0.32393646 28.47627258 -0.33988953 C31.30594323 -0.34083178 33.51746092 -0.25494695 36.0456543 1.08081055 C38.47435309 5.96492444 35.25737484 13.57044436 34.0390625 18.7578125 C33.84782806 19.58272186 33.65659363 20.40763123 33.45956421 21.25753784 C32.85080538 23.88067646 32.23799557 26.50284858 31.625 29.125 C31.22108119 30.86191571 30.81743307 32.59889439 30.4140625 34.3359375 C29.82471109 36.87349132 29.23461661 39.41085623 28.6416626 41.9475708 C27.77305389 45.66358019 26.91044543 49.38038887 26.07714844 53.10449219 C25.81192383 54.28430664 25.54669922 55.46412109 25.2734375 56.6796875 C25.04833496 57.69530762 24.82323242 58.71092773 24.59130859 59.75732422 C24 62 24 62 23 63 C20.26105915 63.08858646 17.5474673 63.11523479 14.80859375 63.09765625 C13.98875504 63.0962413 13.16891632 63.09482635 12.32423401 63.09336853 C9.69528618 63.08775289 7.06642227 63.07519779 4.4375 63.0625 C2.65950643 63.05748701 0.88151154 63.05292376 -0.89648438 63.04882812 C-5.26435545 63.03777839 -9.63216348 63.02050331 -14 63 C-11.19575527 48.30864436 -8.0888926 33.70276302 -4.75 19.125 C-4.57178711 18.34498627 -4.39357422 17.56497253 -4.20996094 16.76132202 C-3.69945535 14.53047487 -3.18634003 12.30024956 -2.671875 10.0703125 C-2.51789246 9.39947128 -2.36390991 8.72863007 -2.20526123 8.03746033 C-1.57116381 5.30665399 -0.88732981 2.66198942 0 0 Z " fill="#FEFEFE" transform="translate(101,66)"/>
<path d="M0 0 C12.21 0 24.42 0 37 0 C35.875 9 35.875 9 34.9375 13 C34.76089844 13.763125 34.58429688 14.52625 34.40234375 15.3125 C34.26957031 15.869375 34.13679688 16.42625 34 17 C29.05211686 17.07404737 24.10455476 17.12855246 19.15625 17.16479492 C17.4722736 17.17990003 15.78833665 17.20038546 14.10449219 17.22631836 C11.68675007 17.26262721 9.26952708 17.27970847 6.8515625 17.29296875 C6.0963028 17.30845261 5.34104309 17.32393646 4.56289673 17.33988953 C2.43994141 17.34057617 2.43994141 17.34057617 -1 17 C-3.48213736 13.27679395 -2.99417971 12.22070903 -2.1875 7.9375 C-1.99542969 6.87402344 -1.80335937 5.81054688 -1.60546875 4.71484375 C-1 2 -1 2 0 0 Z " fill="#C2C2C2" transform="translate(87,129)"/>
</svg>
