<svg xmlns="http://www.w3.org/2000/svg" width="256" height="191" xmlns:v="https://vecta.io/nano"><path d="M37.832-.615l2.37-.017 7.851.033 5.633-.012 15.291.038 15.991.021 26.849.064 31.064.063 33.047.047 9.536.013 14.966.047 5.502.012 7.491.032 2.215-.007c3.677.039 5.217.184 8.363 2.281 1.25 3.801.886 6.668.004 10.52l-.693 3.096-.748 3.197-.736 3.256L220 30l3.089.06 11.327.257 4.906.104 7.044.164 2.222.035c5.183.151 5.183.151 7.41 2.379.931 6.383-.551 12.743-1.972 18.938l-.636 2.876-2.099 9.326-1.458 6.517-3.069 13.617-3.914 17.448-3.019 13.439-1.441 6.435-2.031 8.982-.591 2.68c-1.014 4.386-2.021 8.07-4.769 11.741-2.348 1.174-3.724 1.123-6.341 1.12l-2.762.004-3.038-.011h-3.193l-10.486-.016-7.256-.004-19.126-.025-19.505-.02L121 146l-.382 2.366c-1.359 8.308-3.056 16.441-4.993 24.634l-.442 1.967-1.331 5.72-.787 3.387c-1.229 3.378-2.241 4.717-5.065 6.926-3.125.494-3.125.494-6.848.486l-2.061.012a504.89 504.89 0 0 1-6.724-.036l-4.677-.003-9.79-.047-12.563-.04-9.651-.026-4.634-.012-6.464-.043-3.718-.023C38 191 38 191 36 189c-.661-6.562 1.111-12.707 2.625-19.059l.807-3.468L42 155.562l1.734-7.42L48 130l-3.976.063-14.604.156-6.32.082-9.085.089-2.854.063c-3.829.001-6.407-.033-9.788-1.915-3.313-6.119-1.113-14.006.383-20.472l.567-2.557 1.876-8.302 1.309-5.857L8.98 75.944l3.471-15.457 3.933-17.503.609-2.702 1.204-5.283 3.042-14.055.635-3.027 1.156-5.749.559-2.622.462-2.299C26.838.652 31.149-.736 37.832-.615z" fill="#bcbcbc"/><path d="M37.832-.615l2.37-.017 7.851.033 5.633-.012 15.291.038 15.991.021 26.849.064 31.064.063 33.047.047 9.536.013 14.966.047 5.502.012 7.491.032 2.215-.007c3.677.039 5.217.184 8.363 2.281 1.238 3.78.897 6.65.039 10.484l-.68 3.082-.734 3.184-.711 3.23C220.15 29.85 220.15 29.85 219 31c-1.382.099-2.77.129-4.155.131l-2.715.012-3.002-.002-3.143.011-6.784.016-10.728.041-30.511.116-18.638.081-7.116.015a1095.33 1095.33 0 0 0-9.948.048l-2.984-.02c-5.285.014-5.285.014-9.856 2.409-1.774 2.675-2.418 4.975-3.089 8.114l-.768 3.475-.752 3.615-1.543 7.098-.669 3.176C102 62 102 62 101 65l-2.95.028-10.875.179-4.699.063-6.769.12-2.109.004c-3.44.103-5.517.557-8.482 2.346-2.283 2.439-2.967 3.802-3.67 7.03l-.663 2.9-.657 3.143-.733 3.27-1.556 7.077-2.738 12.246-4.437 19.691L49 130l-19.006.22-6.466.082-9.293.089-2.92.063c-3.877.001-6.527-.017-9.954-1.915-3.287-6.133-1.1-14.003.396-20.472l.567-2.557 1.876-8.302 1.309-5.857L8.98 75.944l3.471-15.457 3.933-17.503.609-2.702 1.204-5.283 3.042-14.055.635-3.027 1.156-5.749.559-2.622.462-2.299C26.838.652 31.149-.736 37.832-.615z" fill="#5f5f5f"/><path d="M219 31l14.844-.11 5.052-.041 7.253-.044 2.289-.031L254 31c2 2 2 2 2.265 3.815-.044 5.921-.915 11.362-2.237 17.124l-.636 2.876-2.099 9.326-1.458 6.517-3.069 13.617-3.914 17.448-3.019 13.439-1.441 6.435-2.031 8.982-.591 2.68c-1.014 4.386-2.021 8.07-4.769 11.741-2.348 1.174-3.724 1.123-6.341 1.12l-2.762.004-3.038-.011h-3.193l-10.486-.016-7.256-.004-19.126-.025-19.505-.02L121 146l.875-5.687.492-3.199c.592-2.911 1.436-5.403 2.633-8.113l2.555-.011 23.836-.173 12.254-.087 11.827-.097 4.512-.024 6.32-.062 3.634-.027c3.656-.619 4.814-1.632 7.063-4.519.946-2.162.946-2.162 1.422-4.559l.656-2.8.672-3.079.752-3.278L203 99l.463-2.133 4.49-20.86 6.985-30.694.892-3.706c2.036-8.339 2.036-8.339 3.17-10.606z" fill="#909090"/><path d="M52.51 128.886l4.681.016 2.484.004 7.887.031 5.334.014L86 129l-.254 2.992-.309 3.883-.316 3.867c-.378 3.144-.378 3.144.879 5.258l35 1c-1.524 9.142-3.248 18.005-5.375 27l-.442 1.967-1.331 5.72-.787 3.387c-1.229 3.378-2.241 4.717-5.065 6.926-3.125.494-3.125.494-6.848.486l-2.061.012a504.89 504.89 0 0 1-6.724-.036l-4.677-.003-9.79-.047-12.563-.04-9.651-.026-4.634-.012-6.464-.043-3.718-.023C38 191 38 191 36 189c-.654-6.546 1.092-12.683 2.59-19.023l.8-3.46 1.682-7.206 2.574-11.08 1.631-7.004.78-3.365.728-3.086.639-2.729c.972-3.457 1.221-3.036 5.086-3.161z" fill="#939393"/><path d="M75.805 64.512l2.194.021 6.876.154 4.688.068L101 65c-.73 7.294-2.317 14.327-3.941 21.469l-.87 3.867-2.283 10.1-2.333 10.338L87 131l-1-2H49c1.35-8.102 2.837-15.935 4.813-23.875 1.602-6.468 3.177-12.925 4.48-19.461l.62-3.02 1.086-5.651.532-2.571.424-2.231c3.121-6.543 8.084-7.931 14.85-7.679z" fill="#afafaf"/><path d="M101 66l14.362-.165 4.886-.062 7.022-.067 2.207-.047c2.83-.001 5.041.085 7.569 1.421 2.429 4.884-.788 12.49-2.007 17.677l-.579 2.5-1.835 7.867-1.211 5.211-1.772 7.612-2.565 11.157-.804 3.575-.682 3.078C125 128 125 128 124 129c-2.739.089-5.453.115-8.191.098l-2.484-.004-7.887-.031-5.334-.014L87 129c2.804-14.691 5.911-29.297 9.25-43.875l.54-2.364 1.538-6.691.467-2.033c.634-2.731 1.318-5.375 2.205-8.037z" fill="#fefefe"/><path d="M87 129h37c-1.125 9-1.125 9-2.062 13l-.535 2.313L121 146l-14.844.165-5.052.062-7.253.067-2.289.047c-2.123.001-2.123.001-5.563-.34-2.482-3.723-1.994-4.779-1.187-9.062l.582-3.223C86 131 86 131 87 129z" fill="#c2c2c2"/></svg>