<svg xmlns="http://www.w3.org/2000/svg" width="550.801" height="550.801" xmlns:v="https://vecta.io/nano"><path d="M373.392 417.304c-5.664 0-9.508.543-11.507 1.091v36.355c2.368.559 5.289.738 9.312.738 14.798 0 23.941-7.499 23.941-20.092-.004-11.327-7.862-18.092-21.746-18.092zM475.095 132c-.031-2.529-.833-5.023-2.568-6.995L366.319 3.694c-.021-.031-.053-.042-.089-.074-.628-.709-1.361-1.292-2.136-1.803l-.707-.422a11.36 11.36 0 0 0-2.136-.892l-.575-.195C359.87.119 359.037 0 358.198 0H97.2C85.293 0 75.6 9.695 75.6 21.601v507.6c0 11.913 9.692 21.601 21.6 21.601h356.4c11.918 0 21.6-9.688 21.6-21.601V133.21c0-.406-.063-.812-.105-1.21zM212.441 475.042c0 35.079-16.809 47.324-43.854 47.324-6.392 0-14.795-1.097-20.282-2.922l3.111-22.47c3.839 1.271 8.765 2.188 14.249 2.188 11.696 0 19.008-5.295 19.008-24.479v-77.478h27.772v77.836h-.004zm53.335 47.14c-14.067 0-27.949-3.654-34.889-7.494l5.667-23.023c7.488 3.839 18.995 7.678 30.871 7.678 12.793 0 19.556-5.3 19.556-13.347 0-7.673-5.843-12.05-20.643-17.354-20.472-7.119-33.803-18.452-33.803-36.355 0-21.015 17.54-37.094 46.596-37.094 13.878 0 24.103 2.922 31.417 6.213l-6.207 22.47c-4.936-2.368-13.7-5.843-25.766-5.843-12.053 0-17.896 5.479-17.896 11.87 0 7.857 6.939 11.338 22.837 17.355 21.731 8.042 31.978 19.38 31.978 36.739-.011 20.64-15.899 38.185-49.718 38.185zm145.626-58.287c-9.519 8.954-23.572 12.973-40.015 12.973-3.66 0-6.95-.18-9.503-.554v44.033h-27.591v-121.5c8.575-1.461 20.651-2.558 37.632-2.558 17.181 0 29.426 3.279 37.642 9.861 7.868 6.206 13.162 16.442 13.162 28.497s-4.018 22.302-11.327 29.248zM97.2 366.758V21.605h250.204v110.519a10.8 10.8 0 0 0 10.8 10.8H453.6l.011 223.834H97.2zm160.078-162.285s-14.521-27.968-13.988-48.395c.39-14.597 33.309-29.03 46.248-49.984 12.878-20.967-1.629-41.378-1.629-41.378s3.232 15.048-5.368 30.634c-8.594 15.585-40.34 24.737-52.69 51.598-12.334 26.873 27.427 57.525 27.427 57.525zm54.309-84.926s-49.455 18.808-49.455 40.299c0 21.507 13.434 28.493 15.591 35.474 2.148 6.998-3.755 18.818-3.755 18.818s19.351-13.429 16.103-29.035c-3.228-15.591-18.278-20.424-9.672-36.007 5.748-10.439 31.188-29.549 31.188-29.549zM251.92 232.87c51.018-1.825 57.019-11.43 62.345-16.047-29.553 8.05-108.023 7.533-108.591 1.613-.52-5.914 24.187-10.758 24.187-10.758s-38.686 0-41.916 9.677c-3.237 9.691 18.307 17.116 63.975 15.515zm69.86-24.099s22.043 0 24.189 13.434c2.136 13.431-27.938 33.315-27.938 33.315s47.371-9.542 42.968-33.837c-5.368-29.561-39.219-12.912-39.219-12.912zm-53.778 38.696c-22.383 2.519-49.431.53-51.598-3.246-2.109-3.763 3.787-5.901 3.787-5.901-26.903 6.462-12.203 17.721 19.311 19.899 27.01 1.84 57.193-8.074 57.193-8.074l9.308-7.517c.005.001-21.29 2.959-38.001 4.839zm-41.352 18.647s-12.195.34-12.902 6.797c-.72 6.413 3.784 9.672 33.94 8.96 35.896-.854 41.882-5.126 45.578-8.234l8.743-6.59c-23.456 3.041-25.27 3.868-38.569 4.245-13.376.388-36.798 1.237-37.866-1.241-1.086-2.516 1.076-3.937 1.076-3.937zm117.168 29.031c4.65-5.031-1.445-8.971-1.445-8.971s2.146 2.516-.696 5.374c-2.868 2.858-29.035 10.02-70.975 12.165-41.913 2.168-87.431-3.928-88.878-9.307-1.382-5.379 23.316-9.661 23.316-9.661-2.855.358-37.27 1.075-38.367 10.399-1.042 9.312 15.05 16.822 79.576 16.822 64.51.001 92.829-11.833 97.469-16.821zm-25.081 21.119c-28.318 5.743-114.278 2.126-114.278 2.126s55.87 13.252 119.657 2.151c30.486-5.305 32.263-20.07 32.263-20.07s-9.334 10.05-37.642 15.793z"/></svg>