<?xml version="1.0" encoding="utf-8"?>
<!-- Svg Vector Icons : http://www.onlinewebfonts.com/icon -->
<!DOCTYPE svg PUBLIC "-//W3C//DTD SVG 1.1//EN" "http://www.w3.org/Graphics/SVG/1.1/DTD/svg11.dtd">
<svg version="1.1" xmlns="http://www.w3.org/2000/svg" xmlns:xlink="http://www.w3.org/1999/xlink" x="0px" y="0px" viewBox="0 0 256 256" enable-background="new 0 0 256 256" xml:space="preserve">
<metadata> Svg Vector Icons : http://www.onlinewebfonts.com/icon </metadata>
<g><g><path fill="#000000" d="M127.9,9.3c33.2,0.2,63.2,12,87.9,39.6c37.4,41.7,40.3,105.4,7.4,150.7c-16.3,22.5-36.5,37.6-59.8,43.4c-17.8,4.4-36.7,3.8-55.1,3.1c-22.4-0.8-42.4-12.5-60.1-28.8C3.2,175.9-2.3,105.9,33.1,58C50,35.1,71,21.7,94.5,14.1C105.2,10.6,116.7,10.8,127.9,9.3z M61.3,60.2c0,46.5,0,91.9,0,137c45,0,89.2,0,133.3,0c0-46.1,0-91.5,0-137C149.9,60.2,105.8,60.2,61.3,60.2z"/><path fill="#000000" d="M128,187.3C107.8,146.5,88.2,106.9,68.1,66c40.1,0,79.1,0,119.6,0C167.9,106.3,148.3,146,128,187.3z"/><path fill="#000000" d="M65.5,70.9c20.4,41.4,39.8,80.7,59.6,120.9c-20,0-39.5,0-59.6,0C65.5,152.8,65.5,113.3,65.5,70.9z"/><path fill="#000000" d="M190.7,192.3c-20.2,0-39.5,0-60.2,0c19.9-40.3,39.4-79.9,58.9-119.4c0.5,0.3,0.9,0.5,1.4,0.8C190.7,112.9,190.7,152.1,190.7,192.3z"/></g></g>
</svg>