<svg xmlns="http://www.w3.org/2000/svg" fill="#000000" width="800" height="800" viewBox="0 0 24 24" xmlns:v="https://vecta.io/nano"><path d="M3.167 7.566v8.749H4.19V9.99a8.979 8.979 0 0 0-.049-1.2h.038a2.908 2.908 0 0 0 .278.547l4.497 6.977h1.257V7.566H9.19v6.153a9.257 9.257 0 0 0 .062 1.286h-.023c-.054-.106-.173-.3-.355-.585L4.496 7.566zm9.315 0v8.749h4.65l.005-.96h-3.609v-3.033h3.158V11.4h-3.158V8.492h3.388v-.926zm5.437 0v.926h2.515v7.823h1.022V8.492H24v-.926zM.653 15.067a.643.643 0 0 0-.456.206.672.672 0 0 0-.197.48.662.662 0 0 0 .197.48.648.648 0 0 0 .48.201.662.662 0 0 0 .48-.201.658.658 0 0 0 .202-.48.667.667 0 0 0-.201-.48.658.658 0 0 0-.48-.206.643.643 0 0 0-.023 0z"/></svg>