<svg xmlns="http://www.w3.org/2000/svg" viewBox="0 0 1000 1000" xmlns:v="https://vecta.io/nano"><path d="M221.6 544.7c-21.9-5.9-42.8-.7-58.6 15.4s-24.1 40.6-24.1 69.3 8.2 57.3 24.1 81.8c15.9 24.6 36.4 40.9 58.6 46.8 22.2 6 42.4.6 58.3-15.5 15.8-16.1 24.4-40.1 24.4-68.9 0-28.7-8.6-57.8-24.4-82.3-15.5-24.4-36.5-40.7-58.3-46.6h0zm208.9-12.2L50.1 345C27.9 334.1 10 342.8 10 364.5v372.7c0 21.7 17.9 48.1 40.1 59l380.5 187.5c22.1 10.9 40 2.2 40-19.5V591.5c0-21.7-17.9-48.1-40.1-59h0zM307.1 780.2c-23.1 22.1-53.2 29.6-85.6 21-32.3-8.7-63-32.4-85.9-66.9-23.1-34.5-35.2-74.4-35.2-115.1s12-74.2 35.2-96.7c23.1-22.1 53.2-29.2 85.9-20.5 32.6 8.7 62.4 31.9 85.6 66.4 23.1 34.9 35.5 75.3 35.5 115.6 0 40.7-12.3 74.1-35.5 96.2h0zm459-216.2l-8 4.7v85.6l8-4.7c39.1-23 58.6-39.5 58.6-75.4.1-36.7-18.7-33.6-58.6-10.2h0zm183.8-219L569.5 532.5c-22.1 10.9-40 37.3-40 59v372.7c0 21.7 17.9 30.4 40 19.5L950 796.2c22.1-10.9 40.1-37.3 40.1-59V364.5c-.1-21.7-18-30.4-40.2-19.5h0zm-98.3 425.4l-91.2-79.9-5 2.9V827l-41.8 24.6V553.2l62.1-36.5c29.5-17.4 51.3-27.7 68.2-23.4 16.5 4.5 26.4 22 26.4 50 0 48-21.4 87.7-62.8 117.5l94.3 80.1-50.2 29.5h0zm115.9-496.3c22.5-11.2 22.5-29.4 0-40.6L540.7 20c-22.5-11.2-58.9-11.2-81.3 0L32.5 233.5c-22.5 11.2-22.5 29.4 0 40.6l426.9 213.4c22.5 11.2 58.9 11.2 81.3 0l426.8-213.4h0zm-527-47.7c-5.1-9.7-9.3-19.7-12.2-30.1-1 11.1-3.6 22.1-7 32.8l-40.5 128.8h-45.9l88-251.1 76 142.2c2.4 4.5 7.6 15.8 15.7 34.4 5.7-14.4 12.1-25.6 16.5-34.4l74.2-142.2 89.5 251.1h-46.3l-41.3-129.1c-1.4-4.4-3.2-15.1-6.9-32.5-1.7 11.1-5.5 21.7-11.3 32.8l-74.3 140.3-74.2-143h0z"/></svg>