<?xml version="1.0" encoding="utf-8"?>
<!-- Generator: Adobe Illustrator 26.0.2, SVG Export Plug-In . SVG Version: 6.00 Build 0)  -->
<svg version="1.1" id="Laag_1" xmlns="http://www.w3.org/2000/svg" xmlns:xlink="http://www.w3.org/1999/xlink" x="0px" y="0px"
	 viewBox="0 0 113.4 113.4" style="enable-background:new 0 0 113.4 113.4;" xml:space="preserve">
<style type="text/css">
	.st0{fill:none;}
	.st1{fill:#FFFFFF;}
</style>
<rect width="113.4" height="113.4"/>
<g id="Kader_00000131334215333920000630000006763125815584721283_">
	<g id="Kader_00000036944753231113037630000012008698264705878144_">
		<g id="Kader">
			<rect x="14.2" y="14.2" class="st0" width="85" height="85"/>
		</g>
	</g>
</g>
<g id="Logo">
	<g id="Outsystems">
		<g id="Outsystemslogo">
			<path id="Shape" class="st1" d="M40.9,58.6c0.8,7.9,7.5,14.1,15.7,14.1s14.9-6.2,15.7-14.1c0-0.5,0.1-1.1,0.1-1.6
				c0-8.7-7.1-15.7-15.8-15.7S40.9,48.4,40.9,57C40.9,57.4,40.9,58.1,40.9,58.6 M14.2,56.6c0-23.5,19-42.5,42.5-42.5
				s42.6,19,42.6,42.5S80.2,99.2,56.7,99.2S14.2,80.1,14.2,56.6"/>
		</g>
	</g>
</g>
</svg>
