<?xml version="1.0" standalone="no"?>
<!DOCTYPE svg PUBLIC "-//W3C//DTD SVG 20010904//EN"
 "http://www.w3.org/TR/2001/REC-SVG-20010904/DTD/svg10.dtd">
<svg version="1.0" xmlns="http://www.w3.org/2000/svg"
 width="512.000000pt" height="512.000000pt" viewBox="0 0 512.000000 512.000000"
 preserveAspectRatio="xMidYMid meet">
<metadata>
Created by potrace 1.15, written by Peter Selinger 2001-2017
</metadata>
<g transform="translate(0.000000,512.000000) scale(0.100000,-0.100000)"
fill="#000000" stroke="none">
<path d="M2451 5113 c-23 -5 -24 -6 -18 -96 4 -51 9 -150 12 -222 3 -71 8
-149 11 -172 l5 -43 99 0 99 0 5 53 c11 103 27 470 21 476 -8 7 -201 11 -234
4z"/>
<path d="M2960 5080 c0 -4 -18 -124 -40 -265 -22 -142 -39 -259 -38 -260 16
-8 195 -41 199 -37 6 7 124 454 131 497 2 16 -7 21 -57 33 -115 26 -195 39
-195 32z"/>
<path d="M2008 5056 c-54 -12 -100 -25 -103 -27 -5 -5 128 -505 136 -513 2 -2
48 6 102 18 95 20 98 22 94 46 -3 14 -22 132 -43 263 l-38 237 -25 -1 c-15 0
-70 -11 -123 -23z"/>
<path d="M1610 4937 c-14 -6 -67 -30 -118 -53 l-92 -43 122 -238 c66 -131 122
-239 123 -241 2 -2 176 77 183 84 4 3 -178 486 -187 495 -3 4 -17 2 -31 -4z"/>
<path d="M3471 4919 c-5 -13 -48 -125 -95 -248 -48 -123 -85 -225 -84 -226 5
-4 181 -85 184 -85 2 0 58 108 124 241 l121 240 -94 44 c-128 60 -144 63 -156
34z"/>
<path d="M1051 4625 l-102 -76 38 -47 c22 -26 99 -120 171 -209 l132 -162 80
57 c49 35 78 63 76 72 -4 18 -274 434 -285 438 -4 1 -53 -32 -110 -73z"/>
<path d="M3811 4481 c-78 -120 -141 -222 -140 -227 0 -5 36 -35 79 -66 l79
-57 162 197 c90 108 170 206 178 216 9 11 11 16 4 13 -6 -4 -19 3 -28 15 -8
13 -20 23 -25 23 -5 0 -16 9 -25 20 -9 11 -14 13 -10 5 4 -8 -3 -5 -14 8 -11
13 -24 23 -28 24 -20 2 -32 11 -27 19 3 5 2 9 -3 8 -18 -3 -34 1 -29 9 2 4 -4
8 -14 9 -14 1 -55 -54 -159 -216z"/>
<path d="M2350 4369 c-333 -38 -687 -188 -945 -399 -97 -80 -241 -231 -306
-320 -83 -114 -113 -164 -178 -300 -123 -260 -169 -444 -178 -720 -11 -334 40
-578 180 -865 99 -202 189 -328 346 -485 160 -159 274 -244 461 -339 687 -349
1500 -236 2075 291 302 276 518 708 566 1128 14 129 7 391 -16 513 -33 183
-124 431 -214 588 -360 630 -1070 990 -1791 908z m430 -163 c700 -94 1258
-619 1412 -1329 19 -87 22 -134 22 -317 0 -185 -3 -229 -22 -317 -34 -156 -76
-276 -147 -418 -295 -592 -900 -950 -1555 -922 -769 34 -1398 568 -1561 1327
-20 92 -23 134 -23 330 0 196 3 238 23 330 135 628 593 1113 1205 1276 197 52
440 67 646 40z"/>
<path d="M2315 4066 c-329 -54 -595 -193 -835 -435 -205 -207 -327 -415 -395
-674 -34 -130 -47 -240 -46 -402 0 -417 131 -741 420 -1038 121 -124 223 -208
341 -278 354 -210 841 -256 1251 -119 373 125 737 454 898 813 88 196 125 380
125 627 0 202 -17 317 -70 480 -78 237 -178 395 -373 591 -232 232 -454 356
-749 420 -124 27 -445 35 -567 15z m466 -160 c137 -22 236 -54 364 -115 141
-69 230 -130 343 -236 256 -241 391 -516 424 -868 21 -221 -15 -463 -95 -654
-152 -359 -464 -647 -832 -767 -148 -48 -235 -60 -430 -60 -254 1 -409 36
-615 139 -257 130 -504 386 -624 645 -81 178 -117 353 -117 570 0 399 136 713
432 994 217 206 457 322 744 359 77 10 328 6 406 -7z"/>
<path d="M2356 3764 c-257 -40 -479 -155 -671 -348 -235 -237 -345 -509 -345
-856 0 -350 109 -617 350 -861 236 -237 527 -359 861 -359 214 0 371 35 544
120 310 153 563 458 645 778 89 345 32 705 -155 989 -76 114 -244 282 -358
358 -248 163 -560 228 -871 179z m479 -178 c187 -49 342 -143 491 -298 132
-138 215 -282 262 -457 23 -86 26 -114 25 -271 0 -157 -2 -185 -26 -275 -98
-366 -388 -653 -765 -757 -65 -18 -105 -22 -257 -22 -164 0 -189 3 -280 27
-188 51 -353 147 -487 285 -82 84 -171 212 -213 307 -143 322 -115 710 72 999
161 250 422 428 706 482 117 22 348 12 472 -20z"/>
<path d="M2470 2560 l0 -880 95 0 95 0 0 880 0 880 -95 0 -95 0 0 -880z"/>
<path d="M2155 3347 l-80 -42 0 -745 0 -744 84 -43 c47 -24 89 -43 93 -43 4 0
8 374 8 830 0 658 -3 830 -12 830 -7 -1 -49 -20 -93 -43z"/>
<path d="M2870 2560 l0 -830 28 11 c15 6 57 27 95 47 l67 36 0 737 0 737 -89
46 c-49 25 -92 46 -95 46 -3 0 -6 -373 -6 -830z"/>
<path d="M1823 3052 c-113 -167 -159 -359 -141 -586 9 -116 44 -227 103 -331
81 -142 75 -176 75 428 0 295 -1 537 -2 537 -2 0 -17 -21 -35 -48z"/>
<path d="M3260 2560 c0 -297 2 -540 4 -540 2 0 23 29 46 65 89 136 131 287
131 471 0 132 -12 209 -52 317 -24 68 -112 227 -125 227 -2 0 -4 -243 -4 -540z"/>
<path d="M4186 4180 l-195 -193 71 -78 70 -78 92 75 c50 42 146 120 213 174
l122 98 -60 64 c-32 34 -59 65 -59 69 0 3 -14 18 -30 34 l-30 29 -194 -194z"/>
<path d="M690 4302 c-31 -31 -70 -73 -88 -93 l-33 -36 202 -162 c111 -89 207
-165 213 -167 7 -3 42 29 78 69 l67 74 -137 134 c-75 74 -162 158 -192 187
l-56 52 -54 -58z"/>
<path d="M4699 3946 c-8 -7 -106 -73 -219 -146 -113 -73 -209 -136 -213 -140
-4 -4 15 -46 43 -94 l52 -87 241 123 c133 68 243 123 245 124 4 1 -86 163
-112 201 -19 27 -25 30 -37 19z"/>
<path d="M383 3907 c-14 -23 -44 -74 -65 -113 l-39 -72 236 -121 c129 -67 237
-121 239 -121 3 0 28 39 56 87 41 69 48 89 38 98 -7 6 -58 40 -113 75 -55 35
-151 97 -212 137 l-113 73 -27 -43z"/>
<path d="M4715 3385 c-132 -51 -246 -97 -253 -102 -10 -6 -6 -27 18 -97 16
-49 32 -91 34 -93 4 -4 516 127 525 134 5 3 -68 236 -77 244 -4 4 -115 -35
-247 -86z"/>
<path d="M125 3350 c-21 -66 -36 -122 -34 -124 8 -7 510 -138 514 -135 11 11
63 185 57 190 -7 7 -483 189 -493 189 -3 0 -23 -54 -44 -120z"/>
<path d="M5075 2961 c-6 -4 -122 -25 -260 -46 -137 -21 -252 -40 -253 -41 -5
-4 16 -195 22 -201 3 -3 125 1 272 8 l267 13 -6 90 c-8 116 -18 186 -26 186
-4 0 -11 -4 -16 -9z"/>
<path d="M26 2923 c-10 -62 -24 -218 -20 -222 3 -3 438 -29 510 -31 23 0 25 8
40 145 l6 61 -253 38 c-140 21 -259 41 -266 43 -6 3 -13 -11 -17 -34z"/>
<path d="M232 2434 c-123 -7 -225 -14 -227 -16 -4 -3 12 -166 20 -215 4 -21
12 -33 22 -33 17 0 452 67 492 76 25 5 25 9 4 162 l-5 42 -42 -1 c-22 -1 -141
-7 -264 -15z"/>
<path d="M4576 2408 c-3 -24 -8 -70 -12 -103 l-6 -61 253 -38 c140 -21 260
-43 267 -49 7 -5 14 -8 16 -6 7 8 26 172 26 224 l0 52 -242 11 c-329 16 -295
20 -302 -30z"/>
<path d="M340 1963 c-135 -36 -247 -67 -249 -69 -2 -2 11 -50 29 -106 18 -57
34 -111 34 -120 0 -10 4 -18 9 -18 13 0 491 180 499 188 11 10 -52 192 -65
191 -7 0 -122 -30 -257 -66z"/>
<path d="M4481 1938 c-16 -51 -27 -96 -23 -99 4 -4 111 -46 237 -94 127 -49
236 -93 243 -98 19 -15 27 -2 66 120 36 113 43 149 27 139 -4 -3 -119 24 -255
59 -136 36 -251 65 -256 65 -4 0 -22 -42 -39 -92z"/>
<path d="M675 1598 c-230 -115 -408 -212 -397 -216 12 -4 57 -82 47 -82 -3 0
4 -9 15 -20 12 -12 18 -25 15 -30 -4 -6 -1 -10 5 -10 6 0 9 -4 6 -9 -3 -5 1
-12 10 -15 8 -3 13 -10 10 -15 -3 -5 1 -12 10 -15 9 -3 12 -11 8 -18 -4 -6 8
0 27 14 19 14 117 78 219 143 102 65 191 123 198 130 11 10 5 26 -34 91 -26
43 -50 82 -53 86 -3 3 -42 -12 -86 -34z"/>
<path d="M4310 1553 c-41 -70 -48 -89 -38 -98 7 -7 105 -72 218 -145 113 -73
208 -137 212 -143 4 -6 9 -9 11 -7 31 39 137 225 137 241 0 5 -7 9 -15 9 -8 0
-118 52 -245 115 l-229 115 -51 -87z"/>
<path d="M772 1115 c-192 -158 -210 -175 -192 -185 11 -6 18 -15 15 -20 -3 -4
13 -24 35 -43 22 -18 40 -38 40 -43 0 -6 16 -25 35 -44 l35 -34 195 195 194
194 -72 77 -72 77 -213 -174z"/>
<path d="M4058 1207 l-66 -73 194 -196 195 -196 87 99 c92 105 102 119 80 119
-7 0 -103 72 -213 160 -110 88 -203 160 -206 160 -3 0 -35 -33 -71 -73z"/>
<path d="M1158 827 c-72 -89 -151 -185 -175 -213 l-42 -50 82 -61 c45 -33 94
-68 108 -77 l27 -17 147 225 c81 124 148 227 149 229 0 3 -36 32 -81 66 l-82
61 -133 -163z"/>
<path d="M3748 932 c-42 -31 -77 -60 -77 -64 -1 -3 62 -104 138 -223 77 -119
141 -221 144 -228 4 -14 25 -1 145 86 76 57 95 77 73 77 -5 0 -84 92 -176 205
-92 113 -168 205 -169 204 -1 0 -36 -26 -78 -57z"/>
<path d="M1519 516 l-125 -244 35 -17 c38 -19 210 -95 214 -95 2 0 3 8 4 17 1
10 42 126 92 257 50 132 90 240 89 241 -3 3 -180 85 -182 85 0 0 -58 -110
-127 -244z"/>
<path d="M3385 719 c-44 -21 -83 -40 -87 -41 -5 -2 33 -110 82 -241 50 -131
90 -247 90 -257 0 -11 2 -20 4 -20 13 0 242 104 255 116 2 2 -3 12 -11 21 -9
10 -66 118 -127 241 -61 122 -114 222 -119 221 -4 0 -43 -18 -87 -40z"/>
<path d="M2027 558 c-9 -29 -39 -141 -67 -248 -29 -107 -56 -203 -61 -212 -8
-14 3 -19 80 -37 49 -12 108 -24 132 -27 l44 -6 38 244 c21 133 41 254 44 268
4 24 1 26 -81 43 -47 9 -92 20 -100 23 -10 4 -18 -9 -29 -48z"/>
<path d="M2975 587 c-49 -11 -91 -22 -93 -23 -2 -1 15 -118 38 -259 22 -141
38 -260 35 -265 -10 -16 44 -11 159 15 113 26 128 31 110 43 -6 4 -34 97 -63
207 -70 267 -81 305 -89 304 -4 -1 -47 -11 -97 -22z"/>
<path d="M2456 498 c-3 -24 -10 -140 -16 -258 -6 -118 -13 -221 -15 -228 -3
-9 28 -12 136 -12 77 0 138 4 135 8 -3 5 -10 107 -16 228 -6 120 -13 238 -16
262 l-5 42 -99 0 -99 0 -5 -42z"/>
</g>
</svg>
