<svg xmlns="http://www.w3.org/2000/svg" width="200" height="200" xmlns:v="https://vecta.io/nano"><path d="M160.966 18.947C181.305 34.62 195.45 56.526 200 82c.686 5.859.68 11.734.625 17.625l-.009 2.382C200.45 126.39 193.076 145.824 178 165l-1.543 2.008c-1.094 1.379-2.266 2.696-3.457 3.992h-2l-.586 1.641c-8.236 13.742-28.498 21.724-43.23 25.668C109.208 202.212 85.356 202.521 68 196l-2.222-.83c-26.832-10.361-45.999-28.979-58.056-54.94-10.131-23.576-10.645-51.202-1.941-75.27C16.666 38.516 35.614 18.089 62 7c32.999-13.016 70.219-9.162 98.966 11.947z" fill="#fdfdfd"/><path d="M160.966 18.947C181.305 34.62 195.45 56.526 200 82c.686 5.859.68 11.734.625 17.625l-.009 2.382c-.159 23.325-6.784 45.23-22.616 62.993l-3 1-.025-2.49-.263-23.303-.134-11.978-.136-11.574-.045-4.401c-.061-7.376-.39-14.124-2.397-21.254a100.66 100.66 0 0 1 3-4c.782-4.64.638-7.979-1.875-12-2.967-2.792-4.531-3.138-8.5-3.125l-2.336-.008c-2.261.036-2.261.036-4.211.749-3.694.682-6.644-1.936-9.703-3.804-21.133-12.338-46.689-16.403-70.691-10.848-11.009 3.094-20.577 7.092-30.012 13.594C45 73 45 73 42.918 72.742L41 72c-4.663-.509-7.946-.659-12 1.875-2.544 2.703-2.957 3.575-3.25 7.313.006 3.87.006 3.87 1.938 7.188 1.439 3.974 1.439 3.974-.073 7.422-2.357 6.549-2.095 13.202-2.126 20.082l-.054 4.266-.103 11.141-.121 11.404L25 165c-4.088-1.363-5.478-4.107-7.75-7.562l-1.336-2.031C1.141 132.297-3.47 104.676 2.094 77.895 8.031 52.38 23.815 29.187 46 15c35.874-21.295 80.953-21.029 114.966 3.947z" fill="#454545"/><path d="M100.5 97.625l2.801-.035c5.313.023 9.12.422 13.699 3.41 3 3.3 3 3.3 3 6l2.133.272c17.654 2.313 33.551 5.113 48.867 14.728v2c-3.577-.707-6.501-2.184-9.75-3.812a84.03 84.03 0 0 0-15.687-5.562l-2.005-.507c-3.921-.923-7.536-1.28-11.558-1.118l1.721.531c29.275 9.135 29.275 9.135 35.279 16.469v2c-3.1-1.066-5.636-2.404-8.312-4.25-9.642-6.161-21.608-9.358-32.687-11.75v2l1.625.375c5.873 1.546 11.2 3.817 16.625 6.5l2.039.992c4.433 2.243 8.002 4.827 11.711 8.133l-1 3-2.875-2.687c-7.271-6.205-16.184-9.27-25.125-12.312l-.406 2.391C130 127 130 127 128.5 128.75c-3.131 1.566-5.859 1.665-9.316 1.938-2.896.414-4.816 1.642-7.184 3.313-4.122 1.374-7.995 1.264-12.312 1.313l-2.553.088c-5.705.058-8.449-.928-13.135-4.4-2.596-.536-2.596-.536-5.125-.5-3.415-.221-4.612-.319-7.5-2.312C70 126 70 126 70 122c-9.65 3.268-17.919 6.614-26 13l-3 2c.558-3.467 1.496-4.811 4.313-6.875 8.506-6 17.557-9.852 27.688-12.125v-2c-20.64 4.549-20.64 4.549-38 16h-3c2.814-6.745 10.005-9.717 16.375-12.562C56.653 116.126 65.358 114.124 74 112c-5.339-.188-10.006.428-15.187 1.688l-2.241.537c-7.443 1.864-14.678 4.34-21.212 8.428C33 124 33 124 30 124c1-3 1-3 4.063-4.719L38 117.5l1.926-.895c8.957-4.074 17.737-6.269 27.449-7.793l3.27-.537C78.533 107 78.533 107 82 107l.625-2.812C84 101 84 101 86.43 99.324c4.78-1.773 9.015-1.763 14.07-1.699z" fill="#242424"/><path d="M119 105l1 2c2.353.561 2.353.561 5.223.859l3.299.433 3.541.457c14.229 2.011 26.645 5.533 38.938 13.25v2c-3.577-.707-6.501-2.184-9.75-3.812a84.03 84.03 0 0 0-15.687-5.562l-2.005-.507c-3.921-.923-7.536-1.28-11.558-1.118l1.721.531c29.275 9.135 29.275 9.135 35.279 16.469v2c-3.1-1.066-5.636-2.404-8.312-4.25-9.642-6.161-21.608-9.358-32.687-11.75v2l1.625.375c5.873 1.546 11.2 3.817 16.625 6.5l2.039.992c4.433 2.243 8.002 4.827 11.711 8.133l-1 3-2.875-2.687C148.475 127.76 137.974 123.247 128 122l-.437 1.938C127 126 127 126 126 127c-7.705 1.09-13.55-.799-20-5-1.785-1.418-1.785-1.418-3-3v-4l8-2-.062-2.937C111 107 111 107 112 106a235.65 235.65 0 0 1 7-1z" fill="#f2f2f2"/><path d="M82 105c6.875.875 6.875.875 8 2v6l8 2c0 2.188 0 2.188-1 5-2.485 2.002-5.184 3.511-8 5l-1.945 1.121c-2.475 1.059-4.431 1.213-7.117 1.254l-2.598.086C75 127 75 127 73.566 124.977c-1.443-2.284-1.443-2.284-4.359-2.391C59.958 123.78 51.443 129.652 44 135l-3 2c.558-3.467 1.496-4.811 4.313-6.875 8.506-6 17.557-9.852 27.688-12.125v-2c-20.64 4.549-20.64 4.549-38 16h-3c2.814-6.745 10.005-9.717 16.375-12.562C56.653 116.126 65.358 114.124 74 112c-5.339-.188-10.006.428-15.187 1.688l-2.241.537c-7.443 1.864-14.678 4.34-21.212 8.428C33 124 33 124 30 124c1-3 1-3 4.063-4.719L38 117.5l1.926-.895c8.957-4.074 17.737-6.269 27.449-7.793l3.27-.537C78.533 107 78.533 107 82 107v-2z" fill="#f6f6f6"/><path d="M138 85c2.938 2.125 2.938 2.125 5 5 0 3.234-.468 5.114-2.125 7.875-3.043 1.826-5.417 1.55-8.875 1.125-2.5-1.562-2.5-1.562-4-4 .061-3.496.347-5.935 2.188-8.937 2.818-1.652 4.607-1.575 7.813-1.062z" fill="#090909"/><path d="M68 85c2.375 1.563 2.375 1.563 4 4 .425 3.462.639 5.835-1.062 8.938C67.835 99.639 65.462 99.425 62 99c-2.437-1.625-2.437-1.625-4-4-.612-3.672-.487-5.288 1.625-8.375C62.712 84.513 64.328 84.388 68 85z" fill="#070707"/><path d="M82 112l-1 2c-1.835.607-1.835.607-4.234 1.113l-2.661.586-2.854.613c-18.925 4.04-18.925 4.04-34.805 14.336C35 132 35 132 32 132c2.814-6.745 10.005-9.717 16.375-12.562 5.36-2.122 10.819-3.739 16.375-5.25l2.4-.664c5.093-1.32 9.59-1.733 14.85-1.523z" fill="#202020"/><path d="M119 108c6.838-.196 13.278.232 20 1.5l2.718.511c10.319 2.138 20.488 6.126 29.282 11.989v2c-3.577-.707-6.501-2.184-9.75-3.812-13.347-6.213-27.793-8.113-42.25-10.187v-2z" fill="#232323"/><path d="M120 112c15.522.73 37.903 6.209 49 18v2c-3.1-1.066-5.636-2.404-8.312-4.25C148.58 120.084 133.769 117.188 120 114v-2z" fill="#252525"/><path d="M82 108v2l-2.684.297c-14.993 1.81-30.938 4.209-43.957 12.355C33 124 33 124 30 124c1-3 1-3 4.063-4.719L38 117.5l1.926-.895c8.223-3.741 16.255-6.047 25.199-7.293l2.59-.393c4.815-.699 9.421-1.058 14.285-.92z" fill="#202020"/><path d="M79 117v2l-2.895.918C64.499 123.654 54.005 127.892 44 135l-3 2c.558-3.467 1.496-4.811 4.313-6.875C54.593 123.574 67.341 116.45 79 117z" fill="#1a1a1a"/><path d="M122 117c12.942 1.213 28.99 7.347 38 17l-1 3-2.875-2.687C146.501 126.129 133.777 122.908 122 119v-2z" fill="#212121"/><path d="M175 103h1v60l3 1-4 2v-63z" fill="#9d9d9d"/><path d="M70 122c3 1 3 1 5 4 2.195.58 2.195.58 4.625.688l2.477.199L84 127v3c-9.066.623-9.066.623-12.625-1.75C70 126 70 126 70 122z" fill="#343434"/><path d="M79 117v2l-7.25 2.438-2.066.697C66.479 123.208 63.3 124.26 60 125v-3l6.688-2.5 1.896-.723c3.598-1.319 6.581-2.071 10.416-1.777z" fill="#232323"/><path d="M82 108v2c-15.745 2.296-15.745 2.296-23 2 2.742-2.742 4.873-2.614 8.688-3.125l3.637-.508c3.587-.358 7.074-.432 10.676-.367z" fill="#141414"/><path d="M153 115c4.689.556 8.199 1.882 12.375 4.063l3.211 1.66L171 122v2c-4.086-.733-7.595-2.687-11.25-4.562l-1.969-.998L153 116v-1z" fill="#0f0f0f"/><path d="M145 125c5.458 1.365 10.022 4.031 14 8 .73 2.195.73 2.195 1 4l-1.504-1.172c-4.345-3.331-8.682-6.221-13.496-8.828v-2z" fill="#171717"/><path d="M82 112l-1 2-7.062 1.625-3.91.789L67 117l-1-3c5.571-1.592 10.211-2.207 16-2zm68 0c2.5 1.563 2.5 1.563 4 3-3.767 1.381-6.448.596-10.25-.437l-3.266-.871L138 113c4.235-2.448 7.355-2.199 12-1z" fill="#2e2e2e"/><path d="M128 122h3c-.187 2.313-.187 2.313-1 5-2.562 1.813-2.562 1.813-5 3l.938-2.312L128 122z" fill="#373737"/><path d="M68 115l-1 2c-2.285.633-2.285.633-5.062 1.125l-2.785.508L57 119v-2c3.83-1.802 6.781-2.196 11-2z" fill="#151515"/><path d="M81 115l-2 4v-2l-6 1v-3c3.053-.981 4.947-.981 8 0z" fill="#dcdcdc"/><path d="M120 112l10 1-1 2-9-1v-2z" fill="#111"/><path d="M38 120c-4.625 4-4.625 4-8 4 1-3 1-3 2.875-4.25C35 119 35 119 38 120z" fill="#282828"/><path d="M122 117l8 1v3l-8-2v-2z" fill="#232323"/><path d="M129 119l9 2v2c-4.468-.496-5.69-.69-9-4z" fill="#171717"/><path d="M164 119l7 3v2c-3.356-.599-5.378-1.846-8-4l1-1z" fill="#252525"/><path d="M35 127l3 1c-1.312 2-1.312 2-3 4h-3c1.875-3.875 1.875-3.875 3-5z" fill="#353535"/></svg>