<svg xmlns="http://www.w3.org/2000/svg" fill="#000000" width="800" height="800" viewBox="0 0 512 512" xmlns:v="https://vecta.io/nano"><path d="M106.669 52.438S208.792-3.087 296.16 63.83l-48.896 167.995s-54.756-37.67-95.361-33.602c-40.605 4.079-94.13 23.508-94.13 23.508l48.896-169.293zM.5 420.566c22.54-11.653 56.372-17.559 95.35-20.823 39.011-3.255 93.91 32.468 93.91 32.468l49.401-169.776c-7.817-5.618-44.168-30.094-89.666-33.348-45.52-3.255-100.354 22.243-100.354 22.243L.5 420.566zm215.604 26.599c8.928 3.519 38.22 31.38 86.972 33.854 48.763 2.419 102.541-22.749 102.541-22.749l48.861-168.249c.33-.176-.604.484-.968.649-45.596 17.845-68.872 20.506-102.496 21.309-34.141.824-86.269-33.095-86.269-33.095l-48.641 168.281zM322.01 81.575l-48.995 167.017s39.803 39 95.867 35.768c56.098-3.267 86.532-20.945 93.976-23.442L511.5 92.416s-64.606 26.982-106.851 22.09c-42.265-4.893-68.555-22.849-82.639-32.931z"/></svg>