<?xml version="1.0" standalone="no"?>
<!DOCTYPE svg PUBLIC "-//W3C//DTD SVG 20010904//EN"
 "http://www.w3.org/TR/2001/REC-SVG-20010904/DTD/svg10.dtd">
<svg version="1.0" xmlns="http://www.w3.org/2000/svg"
 width="1024.000000pt" height="1024.000000pt" viewBox="0 0 1024.000000 1024.000000"
 preserveAspectRatio="xMidYMid meet">
<metadata>
Created by potrace 1.14, written by Peter Selinger 2001-2017
</metadata>
<g transform="translate(0.000000,1024.000000) scale(0.100000,-0.100000)"
fill="#000000" stroke="none">
<path d="M8725 9420 c6 -10 4 -12 -8 -7 -11 4 -17 1 -17 -8 0 -8 -4 -14 -8
-12 -8 2 -67 -54 -74 -71 -2 -4 -6 -6 -10 -4 -5 1 -8 -5 -8 -14 0 -10 -6 -14
-14 -11 -11 4 -13 1 -9 -11 3 -9 3 -14 -1 -10 -5 4 -19 -5 -33 -20 -14 -15
-30 -26 -35 -24 -5 1 -7 -2 -4 -7 3 -5 -10 -21 -29 -36 -20 -14 -48 -37 -63
-50 -51 -46 -57 -50 -64 -47 -5 1 -8 -5 -8 -13 0 -8 -6 -15 -13 -15 -7 0 -21
-11 -31 -25 -10 -13 -22 -22 -27 -19 -5 3 -9 0 -9 -5 0 -6 -7 -11 -16 -11 -8
0 -13 -4 -9 -9 3 -5 -4 -12 -15 -16 -11 -3 -20 -10 -20 -15 0 -5 -9 -12 -20
-15 -11 -4 -18 -11 -15 -16 4 -5 1 -9 -5 -9 -6 0 -18 -7 -27 -15 -8 -8 -19
-12 -25 -9 -7 4 -8 2 -4 -5 4 -6 0 -14 -9 -18 -10 -3 -28 -17 -41 -29 -12 -13
-30 -24 -39 -24 -9 0 -13 -4 -10 -10 3 -5 0 -10 -8 -10 -7 0 -23 -9 -35 -20
-12 -11 -26 -20 -32 -20 -6 0 -9 -3 -7 -7 3 -5 -13 -19 -34 -33 -21 -13 -39
-28 -39 -32 0 -4 -7 -8 -16 -8 -9 0 -12 -5 -8 -11 4 -7 1 -10 -6 -7 -8 2 -21
-3 -31 -11 -9 -9 -33 -27 -54 -41 -20 -14 -43 -31 -51 -38 -8 -7 -14 -10 -14
-6 0 4 -8 0 -18 -9 -10 -10 -22 -14 -27 -10 -4 5 -5 3 -1 -4 4 -7 -2 -17 -14
-23 -11 -6 -20 -7 -20 -3 0 4 -7 -3 -16 -15 -8 -12 -21 -22 -28 -22 -8 0 -17
-7 -20 -16 -3 -8 -10 -13 -15 -10 -5 4 -11 3 -13 -1 -4 -11 -116 -83 -128 -83
-5 0 -10 -4 -10 -10 0 -5 -5 -10 -10 -10 -6 0 -36 -16 -66 -35 -31 -20 -52
-30 -48 -23 4 7 -5 2 -19 -11 -15 -14 -27 -21 -27 -17 0 4 -12 -2 -26 -13 -15
-12 -33 -21 -41 -21 -7 0 -16 -7 -19 -15 -4 -8 -10 -13 -14 -10 -5 3 -11 1
-15 -5 -4 -6 -11 -8 -16 -5 -5 4 -9 2 -9 -3 0 -6 -12 -15 -27 -21 -16 -7 -46
-22 -68 -35 -22 -13 -43 -21 -47 -19 -5 2 -8 -1 -8 -6 0 -6 -3 -10 -7 -9 -12
2 -45 -13 -78 -36 -16 -12 -32 -20 -35 -18 -7 4 -134 -50 -138 -59 -2 -5 -9
-6 -17 -3 -7 3 -16 0 -20 -5 -3 -6 -11 -9 -16 -6 -5 4 -9 1 -9 -6 0 -7 -3 -10
-6 -6 -4 3 -19 0 -35 -8 -16 -9 -40 -16 -54 -17 -14 -1 -25 -5 -25 -9 0 -8
-61 -33 -74 -30 -5 1 -17 -6 -27 -15 -13 -12 -19 -13 -19 -4 0 9 -3 10 -13 1
-8 -6 -22 -12 -33 -14 -10 -2 -26 -7 -34 -10 -8 -3 -46 -16 -85 -28 -97 -32
-235 -102 -270 -138 -17 -17 -33 -31 -37 -31 -5 0 -26 -18 -48 -40 -22 -22
-43 -41 -47 -41 -22 -4 -33 -13 -33 -25 0 -8 -6 -13 -12 -11 -7 1 -12 -4 -11
-10 2 -7 -1 -13 -7 -13 -5 0 -23 -13 -40 -30 -16 -16 -30 -28 -30 -26 0 5
-131 -118 -206 -194 -35 -35 -64 -61 -64 -57 0 4 -6 2 -14 -5 -8 -7 -12 -16
-10 -20 2 -4 -5 -13 -16 -21 -11 -7 -17 -16 -14 -19 3 -4 -4 -9 -15 -13 -11
-3 -23 -15 -26 -26 -4 -10 -13 -19 -21 -19 -8 0 -14 -6 -14 -13 0 -8 -18 -30
-40 -49 -21 -20 -36 -38 -33 -42 3 -3 -2 -8 -11 -12 -9 -3 -16 -13 -16 -21 0
-8 -4 -11 -10 -8 -5 3 -10 2 -10 -4 0 -5 -6 -16 -13 -23 -7 -7 -28 -33 -47
-58 -19 -25 -39 -48 -45 -52 -5 -4 -10 -11 -10 -16 0 -5 -7 -15 -15 -24 -8 -9
-21 -25 -29 -36 -8 -12 -19 -18 -24 -15 -6 3 -7 1 -3 -5 3 -6 0 -17 -8 -25 -8
-8 -12 -18 -8 -22 4 -4 3 -6 -3 -5 -21 5 -36 0 -30 -10 3 -5 1 -10 -5 -10 -6
0 -8 -4 -5 -10 3 -5 -1 -10 -9 -10 -8 0 -18 -5 -22 -12 -5 -7 -3 -8 7 -3 8 5
5 -1 -5 -13 -11 -12 -15 -22 -10 -22 5 0 4 -4 -2 -8 -6 -4 -21 -29 -35 -57
-13 -27 -26 -52 -30 -55 -3 -3 -11 -20 -18 -37 -8 -18 -19 -33 -25 -33 -7 0
-6 -4 2 -9 11 -7 11 -9 -2 -14 -9 -4 -16 -13 -16 -22 0 -8 -4 -15 -10 -15 -5
0 -9 -3 -8 -7 3 -16 -15 -63 -24 -63 -5 0 -6 -5 -3 -10 3 -6 -1 -13 -10 -16
-13 -6 -14 -8 -3 -15 8 -6 9 -9 1 -9 -6 0 -21 -25 -34 -55 -13 -32 -27 -52
-33 -48 -6 3 -8 3 -4 -2 4 -4 2 -15 -5 -23 -10 -13 -9 -15 3 -8 11 6 11 4 -1
-6 -9 -7 -16 -15 -15 -18 3 -14 -38 -90 -48 -90 -6 0 -5 -4 2 -9 11 -7 11 -11
-2 -24 -9 -8 -16 -18 -16 -22 0 -12 -64 -140 -73 -146 -5 -3 -8 -8 -7 -10 4
-10 -21 -59 -30 -59 -6 0 -9 -4 -5 -10 6 -9 -13 -50 -29 -61 -5 -4 -5 -12 -2
-18 4 -6 0 -11 -9 -11 -9 0 -13 -5 -10 -10 3 -6 -1 -17 -9 -26 -9 -9 -14 -20
-11 -25 4 -5 2 -9 -3 -9 -4 0 -18 -22 -30 -50 -12 -27 -26 -50 -32 -50 -5 0
-9 -3 -8 -7 2 -5 -8 -26 -21 -48 -13 -22 -22 -42 -21 -44 1 -2 -2 -7 -7 -10
-15 -11 -43 -60 -43 -76 0 -9 -7 -18 -15 -21 -8 -4 -12 -10 -9 -15 3 -5 1 -9
-4 -9 -6 0 -13 -11 -16 -25 -4 -14 -11 -25 -16 -25 -6 0 -10 -7 -10 -15 0 -8
-5 -15 -11 -15 -5 0 -7 -4 -4 -10 3 -6 3 -10 -2 -10 -4 0 -14 -14 -21 -30 -8
-17 -18 -28 -23 -24 -5 3 -9 -2 -9 -10 0 -8 -11 -28 -25 -43 -41 -46 -45 -52
-45 -60 0 -4 -22 -32 -49 -60 -27 -29 -47 -53 -44 -53 3 0 -6 -11 -21 -25 -14
-13 -26 -28 -26 -33 0 -5 -11 -15 -25 -22 -13 -7 -23 -16 -21 -19 6 -9 -21
-31 -28 -24 -3 4 -6 -1 -6 -11 0 -9 -4 -14 -10 -11 -5 3 -10 1 -10 -6 0 -13
-38 -49 -52 -49 -4 0 -7 -6 -6 -12 2 -7 -3 -12 -9 -10 -7 1 -13 -3 -13 -9 0
-12 -25 -40 -37 -40 -4 0 -13 -10 -20 -22 -7 -12 -12 -18 -13 -14 0 8 -23 -11
-87 -73 -20 -19 -33 -28 -29 -20 4 8 0 6 -9 -5 -9 -11 -21 -19 -26 -17 -5 1
-9 -4 -9 -11 0 -8 -6 -14 -14 -14 -14 0 -11 32 7 55 5 6 7 12 4 12 -4 0 2 20
13 45 11 25 17 45 13 45 -3 0 0 7 7 15 7 8 10 15 6 15 -3 0 -1 12 5 28 12 29
17 51 26 97 3 17 8 37 12 45 4 8 7 31 7 52 -1 20 2 34 5 32 12 -7 17 244 6
341 -9 88 -19 135 -27 135 -4 0 -7 7 -7 15 0 17 -45 108 -55 113 -5 2 -8 9 -8
16 0 7 -18 32 -40 57 -22 24 -40 47 -40 52 0 4 -6 7 -13 7 -8 0 -22 9 -32 20
-10 11 -24 20 -32 20 -7 0 -13 5 -13 10 0 6 -4 10 -9 10 -17 0 -111 45 -111
53 0 5 4 6 9 3 4 -3 16 3 26 14 10 11 22 17 26 14 5 -3 9 -1 9 3 0 7 60 35 80
38 3 0 10 3 15 7 6 3 27 9 47 13 52 10 67 30 31 41 -35 10 -243 12 -243 3 0
-4 -8 -6 -17 -5 -18 3 -95 -18 -116 -31 -7 -4 -18 -8 -26 -10 -8 -1 -18 -8
-22 -15 -5 -7 -9 -9 -9 -4 0 5 -7 3 -15 -4 -8 -7 -15 -9 -15 -6 0 4 -11 -4
-23 -18 -13 -14 -27 -23 -30 -19 -4 3 -7 0 -7 -7 0 -7 -3 -10 -6 -7 -4 4 -15
-3 -25 -15 -11 -11 -19 -17 -19 -13 0 4 -9 0 -20 -10 -19 -17 -19 -17 -14 6
14 57 20 106 17 134 -2 17 -3 40 -4 53 -1 12 -5 22 -9 22 -8 0 -23 38 -21 53
1 4 -5 7 -12 7 -6 0 -18 14 -25 30 -8 17 -20 30 -27 30 -7 0 -16 7 -19 16 -3
8 -10 13 -15 10 -5 -4 -11 -2 -13 3 -7 19 -104 38 -175 34 -67 -3 -118 -9
-118 -13 0 -6 -201 -7 -210 -2 -5 4 -17 7 -25 9 -8 1 -16 7 -18 12 -2 6 -8 11
-13 11 -8 0 -53 37 -105 88 -7 6 -18 12 -24 12 -6 0 -8 5 -5 10 3 6 1 10 -5
10 -10 0 -28 17 -112 109 -16 16 -28 34 -28 40 0 6 -6 11 -14 11 -8 0 -17 9
-21 19 -3 11 -13 22 -21 25 -9 3 -12 11 -8 18 4 7 3 10 -1 5 -5 -4 -17 5 -27
20 -13 21 -18 24 -18 11 0 -10 4 -18 9 -18 5 0 12 -11 15 -25 4 -14 11 -25 16
-25 6 0 10 -6 10 -13 0 -8 9 -22 20 -32 11 -10 20 -24 20 -32 0 -7 5 -13 10
-13 6 0 10 -9 10 -20 0 -11 5 -20 10 -20 6 0 10 -4 10 -9 0 -9 59 -105 79
-127 5 -7 7 -15 4 -18 -4 -3 0 -6 7 -6 7 0 11 -3 7 -6 -3 -3 5 -17 19 -31 13
-13 24 -27 24 -31 0 -4 14 -23 30 -42 16 -19 30 -39 30 -43 0 -5 5 -5 10 -2 6
3 10 1 10 -6 0 -15 48 -57 78 -70 13 -5 41 -11 62 -13 21 -2 43 -7 49 -10 6
-4 11 -3 11 1 0 5 15 10 32 12 46 4 73 8 76 11 1 1 10 3 20 4 9 1 27 7 40 15
52 29 193 -6 241 -59 46 -52 52 -60 45 -60 -3 0 -1 -7 6 -15 7 -8 10 -21 7
-30 -4 -8 -2 -17 3 -20 6 -3 5 -16 0 -31 -6 -14 -8 -30 -4 -35 3 -5 0 -9 -6
-9 -6 0 -9 -4 -5 -9 3 -5 1 -12 -5 -16 -6 -4 -8 -11 -5 -16 4 -5 2 -9 -3 -9
-5 0 -19 -22 -32 -50 -13 -27 -27 -47 -32 -44 -5 3 -7 2 -6 -3 4 -13 -34 -103
-43 -103 -5 0 -9 -11 -9 -23 0 -13 -3 -27 -7 -31 -5 -4 -9 -12 -9 -17 -1 -5
-2 -10 -4 -11 -1 -2 -3 -10 -5 -18 -2 -8 -13 -46 -25 -85 -26 -86 -31 -106
-32 -122 -1 -7 -4 -13 -8 -13 -3 0 -6 -20 -5 -45 0 -25 -3 -45 -8 -45 -5 0 -7
-9 -4 -20 3 -11 1 -20 -4 -20 -6 0 -5 -9 2 -21 8 -15 8 -19 0 -15 -6 4 -11 1
-11 -8 0 -27 17 -26 30 2 8 15 13 30 12 35 -1 4 2 7 6 7 4 0 21 25 37 55 15
30 33 55 38 55 6 0 8 3 4 6 -5 5 10 27 41 60 7 8 11 14 8 14 -3 0 10 16 28 35
19 19 39 35 44 35 5 0 13 7 16 16 4 9 9 14 12 11 3 -3 14 3 25 14 10 10 39 25
64 31 25 7 45 15 45 19 0 5 9 6 20 4 11 -2 20 -1 20 4 0 6 92 8 115 2 10 -3
28 -6 55 -9 19 -3 80 -56 80 -71 0 -6 4 -11 8 -11 9 0 10 -4 15 -51 2 -14 5
-29 8 -35 2 -5 4 -22 2 -39 -1 -16 -3 -47 -3 -67 -1 -21 -6 -38 -10 -38 -4 0
-6 -9 -3 -20 3 -11 0 -27 -7 -35 -7 -8 -10 -15 -6 -15 3 0 1 -11 -4 -26 -6
-14 -13 -39 -16 -57 -3 -18 -7 -36 -8 -42 -1 -5 -5 -16 -9 -22 -8 -12 -11 -24
-23 -80 -2 -12 -9 -34 -14 -48 -5 -14 -7 -25 -4 -25 2 0 0 -10 -7 -21 -6 -12
-13 -36 -16 -53 -2 -17 -7 -42 -9 -56 -10 -47 -13 -65 -18 -95 -2 -17 -5 -35
-6 -40 -1 -6 -1 -12 0 -15 1 -3 3 -32 4 -65 1 -33 6 -66 10 -74 6 -10 5 -12
-2 -7 -7 4 -12 3 -12 -3 0 -5 4 -12 8 -15 4 -2 6 -26 5 -53 -2 -26 -5 -96 -7
-154 -1 -58 -6 -111 -10 -118 -4 -6 -3 -11 2 -11 5 0 12 -21 16 -47 9 -68 14
-93 25 -138 5 -22 12 -51 15 -65 3 -14 7 -36 10 -50 3 -14 7 -37 8 -52 1 -16
5 -28 9 -28 3 0 5 -12 5 -27 -1 -16 2 -39 7 -53 5 -14 11 -47 13 -75 2 -27 6
-61 8 -75 2 -14 7 -45 10 -70 3 -25 9 -56 12 -70 3 -14 8 -43 11 -64 2 -22 10
-57 17 -78 8 -21 10 -35 5 -32 -5 3 -5 -6 0 -20 6 -13 10 -33 10 -43 0 -10 2
-33 5 -50 11 -64 17 -98 21 -138 3 -22 7 -50 10 -63 13 -58 15 -69 17 -104 1
-21 4 -38 7 -38 3 0 6 -12 7 -27 0 -16 4 -41 8 -58 12 -47 18 -78 21 -105 1
-14 8 -38 15 -55 6 -16 13 -39 16 -49 4 -21 22 -82 31 -106 3 -8 7 -19 7 -25
1 -5 6 -23 13 -40 14 -38 25 -69 23 -73 0 -1 7 -16 15 -32 9 -17 13 -35 10
-40 -3 -6 -1 -10 4 -10 6 0 10 -3 9 -7 -2 -7 48 -120 58 -132 1 -1 7 0 13 4 8
4 6 15 -4 34 -8 16 -11 31 -8 35 4 3 1 6 -6 6 -7 0 -9 5 -6 10 4 6 2 16 -3 23
-5 7 -12 26 -15 42 -3 17 -8 41 -12 55 -4 14 -8 32 -10 40 -1 8 -5 22 -8 30
-4 8 -8 31 -11 50 -2 19 -5 35 -6 35 -1 0 -3 18 -5 40 -2 22 -6 51 -10 65 -3
14 -8 45 -11 70 -3 25 -8 58 -11 75 -2 16 -6 99 -8 182 -2 84 -6 157 -10 162
-3 5 -2 12 2 14 5 3 8 44 7 92 -1 48 5 117 13 154 8 36 16 82 18 101 2 19 4
36 6 38 2 2 3 7 13 47 12 48 29 89 43 103 12 12 17 34 14 55 0 4 4 7 10 7 5 0
7 5 3 11 -3 6 -2 14 3 18 8 6 34 47 87 145 11 21 35 55 53 74 l32 35 7 -27 c3
-14 3 -33 0 -41 -3 -9 -2 -14 3 -11 5 3 11 -3 14 -14 3 -11 0 -20 -5 -20 -7 0
-6 -5 1 -14 7 -8 14 -22 16 -32 7 -35 30 -89 40 -96 6 -4 6 -8 2 -8 -12 0 44
-94 86 -145 21 -25 43 -45 50 -45 7 0 6 4 -3 10 -12 8 -12 10 -1 10 10 0 11 3
3 13 -6 7 -13 26 -16 42 -2 17 -5 30 -6 30 -3 0 -12 84 -13 127 -1 27 -4 48
-7 48 -3 0 -6 19 -5 43 0 23 -4 45 -10 49 -6 5 -5 8 3 8 7 0 10 5 7 11 -11 16
-4 221 9 284 12 60 30 112 42 126 8 9 11 18 8 22 -3 3 8 26 25 51 17 24 31 50
31 56 0 6 7 13 15 16 8 4 12 10 9 15 -3 5 0 9 5 9 6 0 11 7 11 15 0 17 28 65
45 77 5 4 6 8 2 8 -12 0 92 150 105 150 6 0 9 3 5 6 -9 10 67 83 83 80 8 -2
29 -9 45 -15 17 -7 35 -14 40 -15 18 -5 50 -19 55 -25 6 -7 121 -66 129 -66 3
0 12 -4 19 -9 43 -27 182 -93 187 -88 3 3 5 0 5 -6 0 -7 3 -11 8 -10 9 3 126
-55 130 -65 2 -4 7 -5 12 -2 5 3 15 -2 24 -11 9 -8 20 -13 25 -9 5 3 12 1 15
-4 6 -9 98 -44 121 -47 6 0 22 -6 36 -12 25 -10 107 -35 121 -36 3 -1 9 -4 13
-8 4 -4 14 -4 23 -1 8 4 13 2 10 -3 -4 -5 6 -10 20 -11 34 -2 62 -8 84 -17 9
-4 22 -5 28 -1 5 3 10 2 10 -4 0 -5 9 -8 20 -6 11 2 20 1 20 -3 0 -15 379 -21
510 -8 41 4 85 8 98 9 12 0 22 5 22 10 0 4 5 5 10 2 6 -4 26 -1 46 5 19 7 43
13 52 15 9 2 17 4 17 5 0 1 9 3 19 5 10 2 42 11 70 20 28 10 60 19 70 21 11 2
24 8 30 14 5 5 16 10 22 10 7 0 25 5 41 12 15 6 30 12 33 13 3 1 16 6 30 12
14 6 29 11 34 11 5 0 12 5 15 11 4 6 17 12 30 14 12 2 26 8 29 13 4 5 13 10
21 12 8 2 32 12 54 23 23 10 47 19 54 19 7 0 13 5 13 12 0 6 3 9 6 5 3 -3 41
12 84 34 43 21 83 39 89 39 6 0 11 8 11 18 0 14 -2 15 -10 2 -8 -12 -10 -12
-10 -1 0 9 -4 10 -12 3 -7 -5 -28 -13 -45 -17 -18 -3 -33 -11 -33 -17 0 -6 -6
-6 -15 2 -8 7 -15 8 -15 4 0 -8 -52 -24 -115 -37 -5 -2 -14 -5 -20 -8 -5 -3
-27 -5 -47 -4 -21 0 -38 -2 -38 -6 0 -3 -12 -4 -26 -1 -20 4 -25 2 -19 -8 6
-9 3 -10 -12 -2 -10 6 -24 8 -30 4 -9 -6 -298 -8 -298 -3 0 1 -22 3 -50 5 -27
2 -72 7 -100 11 -27 5 -58 9 -67 9 -10 0 -18 3 -18 6 0 3 -8 6 -17 6 -29 1
-95 13 -130 23 -17 5 -34 7 -37 3 -3 -3 -6 -1 -6 4 0 5 -14 11 -32 12 -17 2
-36 6 -42 10 -6 5 -31 14 -56 22 -25 7 -49 17 -54 22 -6 4 -19 8 -31 8 -12 0
-27 6 -33 12 -7 7 -16 13 -20 13 -13 1 -87 39 -93 48 -4 5 -12 6 -18 3 -6 -4
-11 -3 -11 1 0 5 -18 16 -40 26 -22 9 -40 22 -40 28 0 5 -4 8 -9 5 -5 -3 -14
1 -21 9 -7 8 -18 15 -25 15 -7 0 -18 7 -25 15 -7 9 -19 14 -27 11 -8 -3 -11
-1 -8 4 3 6 0 10 -7 10 -7 1 -26 12 -43 26 -16 15 -24 23 -17 20 6 -4 12 -3
12 2 0 5 21 13 48 17 26 4 56 9 67 11 11 2 34 5 50 8 17 2 41 7 55 10 37 8
126 22 200 30 19 2 42 6 50 9 8 4 29 8 45 11 17 3 44 8 60 12 17 4 38 7 48 8
9 0 17 4 17 9 0 4 4 6 9 2 5 -3 12 -1 16 5 4 6 11 8 16 4 5 -3 26 0 46 7 21 6
44 13 53 14 8 1 28 7 43 13 16 7 33 10 38 6 5 -3 9 -1 9 4 0 9 11 13 70 29 8
2 21 5 28 5 6 1 12 5 12 10 0 4 7 8 16 8 8 0 25 5 37 12 12 7 27 13 32 14 23
4 110 47 117 58 5 7 8 6 8 -4 0 -9 3 -11 8 -4 8 12 73 40 85 36 4 -1 7 2 7 7
0 5 11 12 25 15 14 4 25 11 25 16 0 5 8 7 18 3 9 -3 14 -2 10 2 -5 5 28 25 71
46 44 21 82 43 86 49 4 6 10 8 14 6 4 -3 20 6 35 19 16 14 37 27 47 30 11 4
19 10 19 15 0 8 41 25 49 21 2 -2 8 4 13 13 5 9 15 16 22 16 8 0 17 7 20 16 3
8 10 13 15 10 5 -4 11 -2 13 3 1 5 9 11 17 13 8 2 22 10 31 18 9 8 27 22 40
30 12 8 28 20 35 27 7 6 34 26 61 42 26 17 44 31 39 31 -8 0 21 23 75 60 12 8
28 20 35 27 7 7 15 9 19 6 3 -4 6 -1 6 5 0 7 6 12 14 12 7 0 41 26 75 58 34
32 64 56 66 53 3 -2 5 1 5 7 0 6 9 14 20 17 11 4 18 10 15 15 -3 5 4 11 15 15
11 3 20 11 20 16 0 5 5 9 10 9 6 0 27 16 48 35 113 107 142 133 142 129 0 -3
11 7 25 21 14 14 30 25 36 25 6 0 7 5 4 10 -3 6 -2 10 3 10 5 0 38 27 73 60
35 33 58 60 51 60 -6 0 -12 -5 -12 -11 0 -5 -4 -8 -8 -5 -5 3 -24 -8 -43 -25
-19 -16 -39 -29 -45 -29 -6 0 -21 -11 -34 -25 -13 -14 -29 -25 -37 -25 -7 0
-13 -4 -13 -10 0 -5 -7 -10 -15 -10 -8 0 -15 -4 -15 -10 0 -5 -7 -10 -15 -10
-8 0 -15 -4 -15 -10 0 -5 -5 -10 -11 -10 -6 0 -25 -11 -43 -25 -18 -14 -36
-22 -39 -18 -4 3 -7 1 -7 -5 0 -6 -10 -14 -22 -17 -11 -4 -42 -20 -69 -35 -26
-16 -50 -26 -53 -23 -3 4 -6 1 -6 -5 0 -8 -126 -74 -150 -78 -6 -1 -59 -24
-137 -59 -28 -13 -54 -21 -57 -17 -3 3 -6 0 -6 -7 0 -8 -7 -11 -15 -7 -8 3
-15 2 -15 -3 0 -4 -21 -13 -47 -20 -62 -15 -62 -15 -103 -33 -21 -9 -37 -11
-41 -5 -4 6 -8 5 -10 -1 -2 -6 -15 -12 -29 -14 -14 -1 -27 -6 -30 -9 -3 -4
-21 -9 -40 -12 -19 -3 -46 -8 -60 -12 -14 -3 -32 -8 -40 -10 -8 -2 -15 -4 -15
-5 0 -1 -9 -4 -20 -6 -11 -3 -24 -6 -30 -7 -5 -1 -16 -6 -22 -10 -8 -5 -13 -3
-13 4 0 8 -4 8 -15 -1 -8 -7 -15 -9 -15 -5 0 4 -6 3 -12 -2 -7 -5 -23 -8 -35
-7 -13 0 -23 -2 -23 -5 0 -4 -10 -8 -22 -8 -13 -1 -34 -4 -48 -6 -14 -3 -47
-8 -75 -12 -27 -4 -59 -9 -70 -12 -59 -14 -115 -24 -155 -28 -45 -5 -67 -8
-126 -20 -17 -3 -53 -7 -80 -10 -27 -2 -49 -4 -49 -5 0 -1 -20 -3 -45 -5 -25
-2 -66 -6 -92 -9 -26 -3 -50 -1 -53 4 -4 6 1 10 10 10 9 0 13 5 10 10 -5 9 16
15 38 11 5 -1 6 2 3 7 -2 4 23 23 57 42 34 18 65 38 68 43 3 5 10 9 15 9 10 1
56 29 64 39 3 3 38 23 78 44 39 20 72 41 72 46 0 5 3 8 8 8 17 -3 30 2 52 21
13 11 29 20 37 20 7 0 13 5 13 11 0 5 14 15 30 20 17 6 30 15 30 21 0 5 4 7 8
4 5 -3 25 9 45 25 20 17 41 27 47 24 5 -3 10 -2 10 3 0 9 94 74 105 72 3 0 12
5 19 13 8 8 38 29 68 48 29 18 56 38 60 44 4 5 8 6 8 1 0 -6 7 -1 15 10 8 10
15 15 15 11 0 -8 7 -4 54 38 16 13 32 22 36 20 4 -3 11 2 14 11 4 9 9 14 13
10 3 -3 13 3 20 14 8 11 18 18 23 15 5 -3 12 1 17 8 4 7 23 22 41 32 17 11 32
23 32 27 0 4 5 8 11 8 6 0 17 6 24 13 33 28 45 37 53 37 5 0 26 17 48 38 21
20 34 30 29 22 -5 -9 1 -7 15 5 44 36 49 43 42 49 -3 4 1 4 10 1 10 -4 22 2
32 17 9 12 16 20 16 16 0 -4 16 9 36 28 20 19 40 34 44 34 4 0 18 9 31 20 13
11 29 23 34 27 52 41 115 93 141 118 18 17 51 46 74 65 23 19 73 65 111 103
38 37 72 67 75 67 2 0 34 29 69 65 36 36 70 65 76 65 5 0 8 4 5 8 -3 5 17 29
44 53 27 24 46 47 44 51 -3 4 1 8 8 8 7 0 22 13 33 29 10 16 23 27 27 25 4 -3
8 -1 8 4 0 6 21 33 48 60 26 28 70 76 97 108 28 31 66 73 85 94 19 21 55 61
80 90 25 28 59 67 77 85 17 18 29 36 25 39 -3 3 1 6 8 6 7 0 11 3 8 6 -3 3 16
27 42 54 26 27 46 50 44 52 -2 2 16 25 39 50 23 25 56 63 72 84 17 21 40 48
51 60 12 13 19 25 16 28 -3 3 -1 6 5 6 5 0 18 15 28 34 11 19 23 33 27 30 4
-3 8 2 8 10 0 9 5 16 10 16 6 0 10 7 10 15 0 9 7 18 15 21 8 4 13 10 10 14 -3
4 2 11 11 14 9 4 14 9 11 12 -3 3 2 14 11 23 31 33 52 61 52 70 0 5 7 12 16
15 8 3 13 10 9 15 -3 6 0 13 8 18 7 4 20 19 29 33 9 14 26 35 37 48 12 12 19
22 16 22 -3 0 6 11 20 24 15 14 24 30 20 35 -3 6 1 11 9 11 8 0 18 9 21 20 3
11 12 26 18 32 26 26 58 78 49 78 -22 0 -95 -87 -86 -102 4 -6 3 -8 -3 -5 -5
3 -15 -3 -23 -13 -8 -10 -18 -16 -23 -13 -6 3 -7 1 -4 -4 4 -6 -4 -22 -18 -37
-13 -14 -23 -26 -21 -26 2 0 -18 -23 -45 -50 -27 -28 -49 -56 -49 -62 0 -6 -3
-9 -6 -5 -7 6 -34 -15 -29 -23 2 -3 -44 -50 -101 -106 -57 -56 -104 -98 -104
-95 0 3 -20 -16 -45 -42 -25 -25 -48 -46 -51 -46 -3 1 -19 -11 -35 -25 -16
-14 -29 -24 -29 -21 0 2 -13 -8 -29 -23 -57 -52 -92 -79 -181 -140 -14 -9 -29
-22 -33 -29 -5 -8 -12 -11 -17 -8 -5 3 -15 -4 -23 -15 -7 -11 -17 -17 -20 -13
-4 3 -7 -2 -7 -12 0 -10 -3 -15 -7 -12 -3 4 -15 -1 -26 -10 -12 -11 -17 -12
-12 -4 5 10 4 12 -3 7 -7 -4 -12 -14 -12 -22 0 -8 -4 -12 -10 -9 -5 3 -10 1
-10 -6 0 -7 -3 -10 -6 -6 -4 3 -12 1 -20 -6 -33 -30 -44 -37 -44 -31 0 4 -8 0
-18 -9 -10 -10 -22 -14 -25 -10 -4 3 -7 1 -7 -5 0 -6 -20 -21 -45 -33 -25 -12
-45 -27 -45 -31 0 -5 -4 -6 -10 -3 -5 3 -10 2 -10 -2 0 -5 -9 -13 -19 -18 -56
-29 -160 -91 -190 -113 -19 -14 -31 -19 -27 -11 6 11 5 11 -6 -1 -7 -8 -20
-16 -28 -18 -8 -2 -31 -13 -50 -25 -19 -12 -38 -21 -42 -19 -5 1 -8 -2 -8 -6
0 -5 -24 -19 -52 -33 -29 -13 -55 -27 -58 -31 -3 -3 -18 -10 -33 -13 -15 -4
-27 -11 -27 -15 0 -6 -21 -15 -60 -25 -3 0 -21 -9 -40 -20 -19 -11 -38 -18
-42 -17 -5 1 -8 -3 -8 -9 0 -5 -4 -8 -9 -4 -5 3 -12 1 -16 -5 -4 -6 -11 -8
-16 -5 -5 4 -9 2 -9 -4 0 -10 -38 -27 -52 -23 -5 1 -8 -2 -8 -7 0 -5 -13 -12
-30 -16 -16 -4 -30 -11 -30 -17 0 -6 -3 -8 -7 -5 -3 4 -17 0 -30 -8 -13 -9
-23 -13 -23 -11 0 3 -22 -6 -49 -19 -27 -14 -56 -25 -65 -25 -9 0 -16 -4 -16
-10 0 -5 -3 -9 -7 -8 -8 3 -86 -24 -140 -48 -17 -8 -38 -14 -47 -14 -9 0 -16
-5 -16 -11 0 -5 -4 -8 -8 -5 -5 3 -22 -2 -38 -10 -16 -9 -29 -15 -29 -14 0 1
-13 -4 -29 -10 -16 -6 -38 -12 -50 -15 -11 -2 -22 -4 -23 -6 -2 -1 -7 -3 -13
-4 -5 -1 -11 -3 -12 -5 -2 -1 -16 -4 -33 -6 -16 -3 -34 -9 -40 -14 -6 -5 -30
-12 -53 -16 -23 -4 -42 -11 -42 -16 0 -5 -5 -6 -10 -3 -6 4 -17 1 -25 -5 -8
-7 -15 -10 -15 -6 0 3 -16 0 -35 -8 -19 -8 -35 -13 -35 -10 0 3 -10 -1 -22 -8
-13 -7 -26 -11 -30 -10 -4 1 -20 -3 -35 -9 -15 -7 -39 -13 -53 -15 -14 -2 -44
-10 -65 -17 -22 -8 -46 -12 -54 -9 -8 3 -11 0 -7 -6 3 -6 -1 -9 -11 -7 -10 1
-27 -2 -38 -7 -11 -5 -4 5 15 22 19 16 40 30 47 30 7 0 13 5 13 11 0 5 5 7 10
4 6 -3 10 -3 10 2 0 4 25 19 55 33 30 14 55 29 55 33 0 5 5 5 10 2 6 -3 10 -2
10 4 0 10 38 27 53 23 4 -1 7 3 7 8 0 6 7 10 15 10 8 0 15 5 15 11 0 5 5 7 10
4 6 -3 10 -1 10 5 0 6 3 9 8 7 4 -3 23 4 42 14 19 11 30 19 25 19 -5 0 6 8 25
18 19 10 52 28 73 40 20 12 37 20 37 17 0 -2 12 7 26 20 15 14 33 25 40 25 8
0 14 4 14 8 0 8 46 35 63 36 4 1 11 6 15 11 4 6 48 36 97 68 50 31 95 61 102
67 7 5 19 10 28 10 9 0 14 4 11 9 -3 4 10 17 29 27 19 10 35 22 35 26 0 5 7 8
15 8 8 0 15 5 15 11 0 5 13 15 30 20 16 6 28 14 25 19 -2 4 7 12 21 18 25 12
39 22 74 54 10 9 21 14 24 11 3 -4 6 1 6 11 0 9 4 14 10 11 5 -3 19 6 32 20
12 14 25 25 30 25 4 0 16 8 26 18 10 9 38 33 62 52 24 19 48 40 54 46 6 6 16
12 21 15 6 2 9 7 8 11 -2 4 5 4 14 1 11 -4 14 -3 9 5 -4 7 -2 12 4 12 6 0 24
14 40 30 16 17 31 30 34 30 3 0 52 46 109 103 57 56 115 112 128 124 13 12 29
28 35 35 6 7 26 27 45 44 19 17 48 48 64 69 17 21 39 47 49 57 11 10 17 18 13
18 -3 0 6 13 21 28 42 44 82 91 82 97 0 2 16 20 35 40 20 19 33 35 30 35 -3 0
7 13 22 29 32 33 41 45 66 84 10 15 23 25 29 21 6 -4 8 -3 4 4 -3 6 1 17 9 25
8 9 15 18 15 21 0 4 11 19 24 34 31 35 96 131 96 143 0 4 6 12 13 16 7 4 30
32 51 61 21 28 42 52 47 52 6 0 8 4 5 9 -4 5 5 23 19 39 14 16 25 35 25 41 0
6 5 11 10 11 6 0 10 7 10 16 0 9 5 12 12 8 6 -4 8 -3 4 4 -8 13 89 164 99 154
4 -4 5 -2 4 3 -4 15 11 55 22 55 5 0 9 7 9 15 0 8 9 24 19 34 11 11 17 22 14
25 -4 3 -1 6 6 6 7 0 10 4 7 9 -3 5 5 20 19 35 13 15 25 29 25 31 0 3 0 8 0
13 0 4 11 20 25 36 14 16 25 35 25 43 0 7 5 13 10 13 6 0 10 5 10 12 0 6 11
26 25 44 14 18 25 36 25 39 0 4 14 24 30 45 21 27 27 41 19 46 -8 5 -9 3 -4
-6z"/>
<path d="M1198 8950 c18 -11 37 -20 42 -20 6 0 10 -4 10 -9 0 -5 16 -15 35
-22 19 -7 35 -17 35 -21 0 -4 7 -8 15 -8 8 0 15 -4 15 -10 0 -5 7 -10 15 -10
8 0 15 -4 15 -10 0 -5 4 -10 9 -10 12 0 98 -57 106 -71 4 -5 15 -9 26 -9 11 0
17 -4 14 -10 -3 -5 1 -10 10 -10 8 0 18 -7 21 -15 4 -8 12 -15 19 -15 6 0 25
-11 41 -25 146 -127 244 -222 244 -236 0 -7 3 -10 6 -6 6 5 16 -5 79 -82 11
-13 28 -33 38 -43 9 -10 14 -18 10 -18 -5 0 -3 -4 2 -8 15 -10 67 -82 60 -82
-3 0 0 -7 7 -15 29 -34 33 -41 36 -55 2 -8 9 -22 16 -30 6 -8 18 -27 26 -42 7
-16 17 -28 22 -28 5 0 6 -5 3 -11 -4 -5 -1 -18 7 -27 13 -15 42 -77 43 -92 0
-3 6 -14 12 -25 14 -26 106 -296 106 -312 0 -7 4 -13 9 -13 4 0 7 -3 6 -7 -3
-15 24 -128 34 -140 6 -7 8 -13 4 -13 -3 0 0 -15 8 -34 8 -19 12 -36 10 -39
-2 -2 2 -21 9 -43 8 -21 12 -45 10 -51 -3 -7 -1 -13 5 -13 5 0 9 -6 9 -12 1
-27 14 -81 29 -121 8 -23 17 -49 19 -57 11 -43 54 -137 77 -169 10 -13 15 -27
12 -32 -3 -5 -1 -9 5 -9 5 0 22 -22 37 -50 15 -27 31 -50 36 -50 4 0 8 -5 8
-10 0 -6 14 -24 30 -40 17 -16 30 -32 30 -34 0 -3 10 -16 23 -29 12 -13 42
-47 67 -75 88 -100 139 -152 149 -152 6 0 11 -4 11 -10 0 -5 53 -63 118 -128
64 -65 137 -143 162 -172 25 -29 55 -62 68 -73 12 -11 22 -27 22 -34 0 -7 5
-13 10 -13 6 0 10 -7 10 -16 0 -8 4 -12 10 -9 6 3 10 1 10 -6 0 -10 66 -107
81 -119 3 -3 19 -30 35 -60 16 -30 32 -56 37 -58 4 -2 7 -9 7 -16 0 -7 13 -38
29 -69 16 -31 28 -57 26 -57 -2 0 5 -25 15 -55 10 -30 16 -55 13 -55 -3 0 1
-8 8 -17 12 -15 12 -16 -1 -8 -12 7 -13 6 -4 -6 28 -35 44 -210 33 -356 -2
-29 -7 -53 -10 -53 -3 0 -5 -10 -4 -22 1 -13 0 -27 -3 -33 -5 -9 -8 -21 -14
-70 -2 -11 -7 -23 -11 -26 -5 -4 -10 -18 -10 -33 -1 -14 -5 -26 -9 -26 -4 0
-10 -16 -14 -35 -4 -21 -10 -32 -17 -28 -7 4 -8 0 -3 -12 4 -10 2 -21 -4 -25
-8 -5 -6 -9 5 -13 9 -4 13 -3 10 3 -3 6 -1 10 4 10 6 0 11 7 11 15 0 8 6 14
13 12 6 -1 11 6 11 15 -1 10 2 16 6 13 4 -2 12 7 18 20 7 14 16 25 22 25 5 0
10 5 10 11 0 6 7 17 15 26 8 8 13 18 10 23 -3 4 2 10 10 14 8 3 15 14 15 25 0
10 7 21 15 25 8 3 15 12 15 21 0 8 5 15 11 15 5 0 7 5 4 10 -3 6 1 13 9 16 9
3 13 10 10 15 -3 6 0 16 6 24 7 8 10 15 6 15 -3 0 1 8 9 18 8 9 16 22 16 27 0
6 5 16 11 23 6 6 7 12 2 12 -5 0 -3 4 4 9 7 4 14 14 16 22 1 8 7 23 13 34 6
11 16 37 23 58 7 22 18 50 25 64 7 14 12 35 9 46 -2 11 1 26 7 33 9 11 20 66
22 112 1 12 5 22 9 22 4 0 6 10 4 23 -1 12 0 36 5 52 19 74 28 383 15 520 -9
93 -16 150 -21 190 -3 22 -7 51 -9 65 -1 14 -6 32 -10 41 -4 9 -8 33 -9 53 -1
20 -5 36 -8 36 -4 0 -6 15 -5 34 1 19 -2 32 -6 30 -5 -3 -9 4 -9 15 -2 33 -4
39 -12 47 -4 4 -7 17 -7 29 0 11 -5 26 -12 33 -9 9 -9 12 2 12 9 0 8 5 -5 20
-10 11 -15 20 -12 20 3 0 -3 25 -13 55 -10 30 -17 55 -14 55 2 0 -2 14 -11 30
-9 17 -13 30 -10 30 4 0 -1 7 -9 16 -9 8 -13 20 -10 26 4 6 1 14 -5 18 -7 4
-13 17 -14 28 -1 12 -5 22 -9 22 -4 0 -8 6 -8 14 0 8 -5 27 -12 43 -6 15 -11
31 -10 36 1 4 -3 7 -9 7 -5 0 -8 3 -5 8 2 4 -4 25 -14 47 -11 22 -19 43 -20
48 0 12 -94 202 -103 208 -5 3 -9 9 -8 12 0 4 -6 22 -15 42 -8 19 -14 38 -13
41 0 4 -3 10 -8 13 -5 3 -16 20 -25 36 -41 80 -64 120 -70 123 -5 2 -8 10 -8
18 0 8 -4 14 -8 14 -5 0 -14 16 -22 35 -8 19 -17 35 -21 35 -4 0 -10 8 -14 19
-3 10 -17 31 -30 47 -14 16 -25 35 -25 42 0 6 -5 12 -11 12 -5 0 -7 5 -4 10 3
6 -1 10 -10 10 -9 0 -14 4 -10 9 3 5 0 13 -5 16 -6 4 -15 18 -21 32 -5 14 -14
21 -21 17 -6 -4 -8 -3 -5 4 9 14 -1 39 -19 46 -10 4 -11 1 -5 -12 15 -28 39
-86 41 -97 1 -5 7 -17 14 -25 11 -13 25 -47 68 -162 6 -15 9 -30 8 -34 -1 -4
3 -10 8 -13 6 -4 13 -18 15 -31 2 -14 6 -32 10 -40 5 -13 19 -71 18 -77 0 -2
9 -33 21 -70 11 -38 21 -75 22 -83 1 -9 6 -21 10 -28 4 -7 6 -16 3 -18 -3 -3
1 -21 9 -40 8 -19 11 -34 8 -34 -4 0 0 -8 7 -17 12 -15 12 -16 -1 -8 -12 7
-13 6 -3 -6 6 -8 14 -34 17 -59 6 -53 15 -101 21 -110 3 -4 7 -32 11 -61 3
-30 9 -58 12 -64 3 -5 7 -23 8 -40 4 -52 13 -129 18 -152 3 -13 0 -25 -5 -29
-6 -4 -6 -10 1 -19 8 -10 8 -15 0 -20 -7 -5 -8 -11 -1 -19 10 -12 11 -86 1
-86 -13 1 -39 28 -33 34 4 4 -1 4 -12 0 -11 -4 -17 -3 -13 1 7 8 -33 44 -40
37 -2 -2 -13 8 -26 22 -12 14 -24 26 -28 26 -11 0 -127 118 -121 124 4 3 1 6
-6 6 -16 0 -127 119 -123 132 1 5 -1 7 -5 5 -5 -3 -14 1 -21 9 -7 8 -10 14 -7
14 3 0 -8 13 -25 30 -16 16 -30 33 -30 38 0 4 -13 21 -30 37 -16 16 -30 32
-30 37 0 8 -33 49 -72 89 -9 10 -14 20 -10 23 3 3 0 6 -6 6 -7 0 -12 7 -12 16
0 8 -4 12 -10 9 -5 -3 -10 -1 -10 5 0 13 -80 133 -92 138 -4 2 -8 8 -8 13 0 9
-6 18 -40 58 -8 10 -16 23 -18 30 -1 7 -11 22 -22 34 -11 11 -20 24 -20 29 0
4 -18 31 -39 60 -22 28 -38 55 -36 58 2 4 -7 18 -21 33 -13 14 -24 29 -24 32
0 4 -6 12 -12 20 -29 30 -47 55 -40 55 4 0 2 4 -4 8 -5 4 -23 25 -40 47 -16
22 -44 56 -61 75 -18 19 -33 38 -33 42 0 4 -12 20 -27 36 -16 16 -39 43 -53
62 -14 18 -36 47 -50 64 -33 41 -163 166 -172 166 -5 0 -8 7 -8 15 0 8 -5 15
-11 15 -6 0 -40 29 -76 65 -35 36 -69 65 -74 65 -5 0 -9 8 -10 18 0 9 -3 12
-5 5 -3 -6 -21 5 -45 28 -23 23 -45 37 -52 33 -7 -4 -9 -4 -5 1 4 4 -11 21
-32 36 -22 16 -40 33 -40 39 0 5 -7 7 -15 4 -10 -4 -15 0 -15 11 0 9 -4 14 -8
11 -5 -3 -20 6 -35 20 -14 13 -31 24 -37 24 -5 0 -10 4 -10 8 0 5 -16 14 -35
22 -19 8 -35 17 -35 21 0 4 -8 9 -17 13 -23 7 -56 28 -65 41 -5 7 -8 7 -8 0 0
-7 -3 -7 -8 0 -9 12 -61 44 -84 52 -10 3 -18 9 -18 14 0 5 -8 9 -19 9 -10 0
-29 8 -42 18 -28 21 -75 42 -92 42 -7 0 3 -9 21 -20z"/>
<path d="M8170 4406 c-7 -14 -17 -26 -22 -26 -5 0 -6 -4 -3 -10 3 -5 1 -10 -4
-10 -6 0 -11 -4 -11 -10 0 -19 17 -10 31 18 8 15 18 30 23 33 5 4 7 12 4 19
-2 6 -10 0 -18 -14z"/>
<path d="M8105 4320 c-4 -11 -11 -17 -17 -14 -6 4 -8 2 -4 -4 3 -6 -10 -28
-29 -49 -19 -21 -35 -41 -35 -44 0 -3 -12 -20 -27 -36 -16 -17 -41 -47 -58
-68 -16 -21 -40 -49 -53 -62 -13 -12 -21 -23 -18 -23 5 0 -15 -23 -99 -114
-69 -74 -105 -118 -105 -127 0 -5 -3 -8 -7 -7 -10 4 -103 -92 -103 -105 0 -6
-3 -8 -6 -5 -3 3 -21 -10 -40 -30 -19 -19 -34 -33 -34 -30 0 3 -24 -18 -53
-46 -29 -28 -75 -69 -101 -91 -27 -22 -60 -50 -73 -63 -12 -13 -23 -20 -23
-17 0 6 -22 -10 -77 -56 -7 -5 -13 -7 -13 -4 0 4 -6 0 -14 -7 -8 -7 -26 -22
-42 -33 -15 -11 -33 -26 -40 -32 -7 -7 -17 -13 -23 -13 -6 0 -11 -5 -11 -11 0
-5 -5 -7 -10 -4 -6 3 -13 -1 -16 -9 -3 -9 -12 -16 -20 -16 -7 0 -18 -8 -23
-17 -6 -10 -11 -15 -11 -11 0 5 -34 -10 -76 -33 -42 -22 -99 -49 -128 -60 -28
-11 -60 -24 -71 -29 -25 -12 -134 -50 -157 -55 -9 -2 -26 -9 -37 -15 -12 -6
-21 -8 -21 -6 0 3 -19 -2 -42 -10 -23 -8 -53 -16 -67 -19 -25 -5 -48 -9 -99
-19 -12 -3 -27 -8 -34 -12 -7 -5 -8 -3 -3 5 6 10 3 11 -14 2 -11 -7 -21 -9
-21 -6 0 3 -9 1 -20 -5 -15 -8 -20 -8 -20 1 0 7 -4 8 -12 2 -11 -8 -271 -10
-288 -3 -3 1 -12 2 -22 1 -9 -1 -19 2 -22 7 -6 11 101 55 114 47 4 -3 11 2 14
11 3 8 10 12 16 9 5 -3 10 -1 10 5 0 6 4 9 8 6 5 -3 22 2 38 10 16 9 29 15 29
14 0 -1 14 4 30 11 17 7 33 12 38 11 4 -1 7 3 7 9 0 5 4 8 9 4 5 -3 12 -1 16
5 3 5 13 10 21 10 8 0 26 8 41 17 14 10 32 18 40 19 8 2 23 10 34 20 10 9 19
13 19 9 0 -4 8 -1 18 8 10 10 22 14 25 10 4 -3 7 -2 7 3 0 5 16 18 35 28 19
11 35 23 35 28 0 5 4 7 9 3 5 -3 16 4 24 15 7 11 16 17 19 15 3 -3 8 1 11 9 5
12 1 13 -16 6 -12 -4 -21 -14 -19 -20 2 -8 -3 -10 -13 -7 -8 4 -15 3 -15 -1 0
-9 -92 -48 -104 -44 -4 2 -14 -3 -22 -9 -8 -6 -14 -8 -14 -3 0 5 -4 3 -9 -4
-5 -8 -20 -15 -35 -15 -14 -1 -26 -6 -26 -11 0 -5 -3 -7 -6 -4 -3 3 -40 -4
-82 -17 -42 -13 -84 -23 -92 -23 -17 -1 -66 -10 -94 -18 -14 -5 -16 -3 -10 7
6 11 5 12 -7 2 -8 -6 -17 -12 -21 -12 -5 -1 -9 -1 -10 -2 -39 -14 -603 -14
-603 1 0 3 -42 10 -85 12 -25 2 -47 6 -50 10 -3 4 -16 9 -28 11 -12 2 -25 6
-28 10 -4 4 -16 7 -26 7 -10 0 -18 3 -18 8 0 4 -10 8 -23 9 -38 4 -61 11 -133
44 -23 10 -54 21 -68 25 -14 3 -26 9 -26 13 0 4 -23 18 -50 31 -27 13 -50 27
-50 32 0 5 -4 6 -10 3 -6 -3 -10 -2 -10 3 0 4 -16 14 -35 22 -19 7 -32 16 -30
20 2 3 -10 12 -26 19 -16 7 -27 17 -23 22 3 5 -2 9 -10 9 -9 0 -16 7 -16 15 0
8 -7 15 -15 15 -8 0 -15 7 -15 15 0 8 -8 15 -17 15 -9 0 -13 3 -10 7 4 3 -6
19 -22 34 -16 15 -26 31 -23 35 4 4 1 4 -5 0 -10 -5 -10 -12 0 -29 6 -12 15
-24 18 -27 3 -3 11 -20 18 -37 7 -18 17 -30 22 -27 5 3 9 -2 9 -12 0 -36 116
-193 207 -281 24 -24 42 -43 39 -43 -3 0 22 -27 54 -60 32 -33 64 -60 70 -60
6 0 8 -4 5 -10 -3 -5 1 -10 10 -10 10 0 13 -5 9 -12 -4 -6 -3 -8 3 -5 5 3 21
-5 36 -19 14 -13 31 -24 37 -24 6 0 8 -4 5 -10 -3 -5 -1 -10 6 -10 14 0 92
-50 97 -63 2 -4 8 -5 13 -1 5 3 9 0 9 -5 0 -6 9 -11 20 -11 11 0 20 -4 20 -9
0 -10 124 -72 150 -76 8 -1 40 -13 70 -27 58 -26 109 -43 124 -39 4 1 14 -3
20 -9 7 -5 16 -7 19 -3 4 3 7 2 7 -4 0 -5 12 -9 28 -8 15 1 32 -1 37 -4 6 -3
15 -6 20 -8 6 -1 21 -4 35 -7 14 -3 36 -8 50 -11 14 -4 36 -9 50 -12 14 -3 85
-6 159 -7 136 -2 171 1 309 30 15 3 37 6 48 8 12 1 29 7 37 14 12 10 16 10 20
0 4 -11 6 -10 6 0 1 7 6 10 11 7 6 -3 10 -2 10 4 0 5 9 8 20 6 11 -2 20 0 20
6 0 5 7 9 15 9 8 0 40 12 72 26 32 14 66 26 76 27 9 1 17 6 17 11 0 5 3 6 6 3
4 -4 19 2 34 13 16 11 33 20 40 20 6 0 9 4 5 9 -3 6 4 8 15 6 12 -2 20 1 20
10 0 9 6 12 15 9 8 -4 15 -2 15 4 0 5 8 12 18 15 25 8 75 40 89 57 7 8 13 11
13 7 0 -4 6 -3 13 2 56 46 76 61 86 61 6 0 11 4 11 8 0 4 18 19 39 32 21 14
37 28 35 32 -2 4 5 9 16 13 11 3 20 11 20 16 0 5 4 9 10 9 5 0 25 15 43 33 19
17 51 46 72 62 44 35 286 272 266 260 -7 -4 15 22 50 58 92 94 167 177 162
177 -2 0 8 13 24 29 45 46 73 80 73 91 0 5 6 13 13 17 7 4 23 25 37 45 14 21
28 38 33 38 4 0 7 7 7 15 0 9 7 18 15 21 8 4 12 10 9 15 -3 5 -1 9 4 9 5 0 15
13 22 30 7 16 16 27 21 24 5 -3 9 -1 9 3 0 5 13 23 29 41 17 17 27 32 25 32
-5 0 7 16 56 76 5 7 6 15 3 18 -4 3 -1 6 5 6 7 0 12 6 12 13 0 6 11 22 23 34
13 11 32 38 42 60 11 21 23 40 28 41 4 2 7 8 7 14 0 5 7 16 15 25 8 8 13 19
10 24 -10 15 -23 10 -30 -11z"/>
<path d="M4065 3900 c-4 -6 -11 -8 -16 -5 -5 3 -6 0 -3 -8 3 -8 -3 -22 -12
-32 -10 -10 -19 -25 -20 -34 -1 -9 -9 -36 -18 -60 -18 -48 -25 -82 -32 -151
-10 -95 -11 -141 -4 -145 4 -2 5 -17 3 -32 -9 -61 -9 -68 0 -80 6 -8 6 -13 0
-13 -5 0 -10 -7 -10 -15 0 -8 4 -15 9 -15 11 0 6 -23 -7 -32 -7 -5 -7 -8 0 -8
6 0 11 -28 12 -62 2 -65 10 -153 13 -153 4 0 8 -54 9 -112 1 -35 5 -53 14 -53
7 0 12 -13 12 -34 0 -40 0 -40 -88 36 -18 15 -36 28 -40 28 -5 0 -5 5 -2 10 4
6 3 10 -2 9 -21 -4 -33 2 -33 16 0 8 -5 15 -10 15 -6 0 -20 9 -32 20 -12 10
-26 17 -31 13 -6 -3 -7 -1 -3 6 4 6 0 14 -11 18 -10 4 -25 14 -33 23 -8 9 -21
15 -27 13 -7 -3 -13 2 -13 11 0 9 -6 16 -14 16 -7 0 -19 7 -26 15 -7 8 -17 12
-23 8 -6 -4 -8 0 -4 11 4 9 3 15 -1 12 -5 -3 -14 4 -22 14 -8 10 -17 17 -21
14 -9 -5 12 -64 23 -64 4 0 8 -7 8 -15 0 -8 5 -15 11 -15 5 0 8 -4 4 -9 -3 -5
0 -15 7 -23 7 -7 15 -22 16 -33 2 -11 8 -21 13 -23 5 -2 9 -12 9 -23 0 -10 4
-19 9 -19 5 0 11 -8 15 -17 5 -17 12 -29 48 -84 10 -14 15 -29 11 -33 -3 -3
-2 -6 4 -6 6 0 16 -13 23 -30 7 -16 16 -30 21 -30 5 0 9 -7 9 -15 0 -8 4 -15
9 -15 5 0 12 -8 15 -17 11 -31 32 -62 56 -83 13 -11 19 -20 15 -20 -5 0 0 -10
11 -22 11 -13 33 -43 50 -68 16 -25 32 -46 37 -48 4 -2 7 -8 7 -13 0 -5 8 -17
18 -28 9 -10 27 -32 39 -48 12 -16 34 -42 48 -57 14 -15 25 -30 25 -33 0 -4 7
-13 15 -22 8 -9 28 -30 43 -46 16 -17 34 -40 41 -53 6 -12 19 -22 27 -22 8 0
12 -4 9 -10 -3 -5 -1 -10 4 -10 6 0 11 -4 11 -9 0 -13 63 -76 73 -73 4 1 7 -2
7 -7 0 -19 267 -291 285 -291 3 0 19 -13 37 -30 17 -16 35 -30 40 -30 5 0 6
-5 3 -10 -3 -5 1 -10 9 -10 8 0 20 -8 25 -17 6 -10 11 -15 11 -11 0 4 10 -3
23 -15 38 -36 67 -57 77 -57 6 0 10 -4 10 -8 0 -5 19 -19 43 -32 23 -13 47
-29 52 -35 6 -6 36 -28 67 -48 31 -21 64 -44 72 -53 9 -8 16 -13 16 -10 0 3 8
-2 18 -12 10 -10 57 -40 105 -66 48 -26 87 -51 87 -56 0 -5 7 -7 15 -4 8 4 15
1 15 -5 0 -6 7 -11 15 -11 8 0 15 -3 15 -7 0 -5 18 -17 40 -27 22 -11 40 -23
40 -28 0 -5 4 -7 9 -4 5 3 20 -3 34 -14 33 -26 180 -100 198 -100 10 1 8 5 -5
15 -10 8 -23 12 -27 9 -5 -3 -9 0 -9 5 0 6 -7 11 -16 11 -8 0 -13 4 -10 9 3 5
-4 11 -17 15 -12 3 -31 14 -42 24 -11 10 -28 21 -38 25 -10 4 -15 12 -12 17 4
6 3 9 -2 8 -11 -3 -55 22 -73 42 -8 9 -23 19 -32 23 -10 3 -18 11 -18 17 0 5
-5 10 -11 10 -11 0 -102 69 -107 83 -2 4 -8 7 -13 7 -5 0 -31 22 -59 49 -27
27 -57 51 -66 55 -8 3 -12 11 -8 17 4 7 3 9 -3 6 -5 -3 -26 12 -46 33 -20 22
-41 40 -47 40 -5 0 -10 5 -10 11 0 6 -13 24 -30 41 -16 16 -30 26 -30 22 0 -4
-13 9 -29 29 -15 20 -31 34 -35 30 -3 -3 -6 1 -6 11 0 9 -4 15 -9 12 -4 -3
-21 11 -37 30 -16 19 -40 48 -54 63 -14 15 -44 50 -68 77 -24 27 -54 61 -68
77 -13 15 -24 30 -24 33 0 11 -28 33 -34 27 -3 -4 -6 1 -6 11 0 9 -7 19 -15
22 -8 4 -13 10 -10 14 2 4 -9 21 -25 39 -17 17 -30 33 -30 36 0 3 -9 16 -21
28 -11 12 -29 39 -40 60 -11 20 -24 37 -30 37 -6 0 -8 4 -4 9 3 5 -2 16 -10
24 -8 9 -15 20 -15 26 0 6 -3 11 -7 11 -5 0 -17 18 -27 40 -11 22 -23 40 -28
40 -5 0 -6 5 -3 10 3 6 2 10 -2 10 -9 0 -39 71 -34 79 2 2 -1 7 -6 10 -11 8
-53 92 -43 86 5 -3 3 6 -3 20 -7 14 -15 25 -19 25 -5 0 -8 5 -8 11 0 5 6 7 13
3 7 -5 6 -1 -3 10 -15 19 -17 25 -27 76 -3 16 -8 30 -12 30 -4 0 -7 8 -8 18
-2 24 -7 45 -15 57 -4 6 -2 17 4 25 8 12 9 11 4 -4 -6 -16 -4 -17 9 -6 13 11
15 9 15 -10 0 -13 3 -20 6 -17 7 7 44 -30 44 -45 0 -4 7 -8 15 -8 8 0 15 -6
15 -14 0 -8 7 -17 16 -20 8 -3 12 -10 9 -16 -3 -5 -1 -10 5 -10 6 0 18 -7 26
-15 9 -8 13 -15 9 -15 -3 0 17 -23 45 -50 27 -28 50 -54 50 -58 0 -5 13 -19
30 -32 16 -14 29 -31 30 -38 0 -7 5 -10 10 -7 6 3 10 1 10 -5 0 -5 38 -49 85
-95 47 -47 85 -83 85 -81 0 3 11 -5 23 -17 58 -54 98 -87 107 -87 6 0 10 -4
10 -8 0 -4 25 -25 56 -47 31 -22 62 -46 69 -52 8 -7 16 -13 20 -13 6 0 77 -53
103 -77 7 -7 19 -13 27 -13 7 0 15 -7 19 -15 3 -8 12 -15 21 -15 8 0 15 -4 15
-10 0 -5 9 -10 20 -10 11 0 20 -3 20 -7 0 -5 18 -17 40 -27 22 -11 40 -24 40
-29 0 -6 3 -8 6 -4 3 3 24 -5 45 -19 21 -13 39 -21 39 -17 0 5 4 3 8 -3 9 -15
87 -54 107 -54 8 0 15 -4 15 -10 0 -5 6 -10 13 -10 7 0 38 -12 68 -27 49 -24
67 -30 107 -35 6 -1 12 -4 12 -8 0 -4 6 -7 13 -8 21 -1 136 -32 187 -50 8 -3
29 -7 45 -9 17 -2 37 -7 45 -10 49 -20 145 -27 360 -27 113 0 237 3 275 8 39
4 76 8 83 9 6 0 12 5 12 10 0 5 9 7 20 4 11 -3 20 -2 20 2 0 4 6 8 13 9 6 0
26 4 42 7 17 4 35 8 40 9 6 1 15 4 20 7 10 6 52 18 95 26 13 2 29 8 35 12 5 5
18 7 28 6 9 -2 17 1 17 6 0 5 3 8 8 7 14 -5 111 36 106 44 -3 5 6 7 20 4 13
-2 26 0 28 5 2 6 10 11 18 13 21 3 134 60 138 69 2 4 12 7 23 7 11 0 22 7 25
15 4 8 10 12 15 9 5 -3 24 6 41 19 18 14 43 28 56 32 12 3 22 10 22 15 0 4 8
10 18 14 20 6 50 25 70 43 7 7 20 13 28 13 8 0 14 5 14 11 0 5 5 7 10 4 6 -3
13 1 16 9 3 9 10 14 14 11 5 -3 15 3 22 13 13 19 18 22 38 22 6 0 10 7 10 17
0 9 3 13 6 10 4 -4 20 5 36 18 16 14 34 25 39 25 6 0 7 4 4 10 -3 6 0 10 8 10
8 0 27 11 42 24 15 13 40 30 54 37 14 8 35 23 46 34 29 29 86 77 119 100 16
11 40 32 54 47 14 15 29 25 34 22 5 -3 7 -2 6 3 -4 10 80 92 87 85 3 -3 5 2 5
12 0 9 4 15 8 12 8 -5 17 4 59 57 12 15 25 29 29 30 13 3 64 58 64 68 0 6 3 8
8 6 7 -3 57 43 56 53 0 3 17 23 37 45 21 22 60 64 88 93 27 28 46 52 43 52 -4
0 -2 4 3 8 6 4 28 30 50 57 22 28 43 52 47 53 5 2 6 8 2 13 -3 5 3 9 12 9 10
0 15 3 11 6 -5 6 4 19 53 73 34 39 69 85 67 91 -1 3 13 20 31 38 22 22 29 37
24 50 -6 15 -7 15 -10 1 -1 -9 -14 -22 -27 -29 -14 -7 -25 -17 -25 -22 0 -5
-5 -6 -12 -2 -8 5 -9 2 -5 -9 3 -10 3 -17 -1 -17 -13 0 -62 -47 -55 -54 3 -3
1 -6 -6 -6 -6 0 -36 -24 -65 -52 -30 -29 -73 -69 -96 -87 -24 -19 -48 -41 -55
-48 -7 -6 -15 -9 -19 -6 -3 4 -6 1 -6 -5 0 -16 -37 -52 -44 -44 -3 3 -6 0 -6
-6 0 -7 -5 -12 -10 -12 -6 0 -21 -10 -34 -22 -34 -35 -88 -78 -118 -96 -16 -9
-28 -20 -28 -24 0 -4 -7 -8 -15 -8 -8 0 -15 -4 -15 -9 0 -5 -9 -11 -21 -14
-13 -4 -18 -10 -13 -18 4 -7 3 -10 -3 -6 -6 4 -21 -2 -33 -13 -13 -11 -28 -20
-34 -20 -6 0 -19 -8 -28 -17 -24 -26 -48 -45 -48 -38 0 6 -62 -24 -70 -35 -7
-9 -104 -75 -107 -72 -4 2 -37 -11 -43 -17 -10 -11 -124 -66 -132 -64 -4 2 -8
-2 -8 -7 0 -6 -5 -10 -11 -10 -6 0 -23 -8 -37 -18 -25 -18 -135 -65 -146 -63
-3 0 -26 -8 -51 -19 -25 -11 -45 -17 -45 -13 0 3 -8 -1 -18 -10 -10 -10 -21
-14 -24 -11 -4 3 -17 0 -30 -7 -12 -7 -32 -14 -43 -15 -11 -2 -47 -13 -80 -25
-60 -21 -81 -27 -122 -35 -13 -2 -33 -6 -45 -8 -13 -3 -34 -7 -48 -10 -13 -3
-42 -8 -64 -12 -22 -3 -43 -7 -46 -9 -3 -2 -26 -6 -50 -10 -96 -14 -145 -22
-145 -25 0 -4 -138 -12 -232 -13 -62 -1 -113 -4 -113 -7 0 -10 -95 -5 -102 5
-5 7 -8 6 -8 -1 0 -6 -7 -11 -15 -11 -8 0 -15 3 -15 7 0 4 -7 7 -15 7 -8 0
-12 -4 -9 -9 3 -5 -5 -6 -19 -3 -13 4 -63 7 -111 8 -47 1 -86 5 -86 8 0 3 -12
5 -27 3 -15 -1 -32 0 -37 4 -6 3 -22 7 -36 9 -40 4 -85 11 -85 12 0 1 -20 4
-45 6 -46 5 -55 7 -100 18 -32 9 -81 18 -97 19 -7 1 -13 5 -13 9 0 5 -6 6 -13
3 -7 -2 -31 2 -52 9 -22 8 -48 13 -57 11 -10 -1 -18 2 -18 7 0 5 -8 9 -18 9
-10 0 -22 3 -26 7 -6 7 -24 11 -58 15 -10 1 -18 6 -18 10 0 4 -9 8 -19 8 -11
0 -22 4 -26 10 -3 5 -12 7 -20 3 -8 -3 -15 0 -15 6 0 6 -3 10 -7 9 -5 -2 -33
8 -63 21 -30 14 -64 25 -74 26 -11 1 -22 7 -24 13 -2 7 -10 12 -18 12 -7 0
-48 21 -91 46 -43 26 -84 47 -90 47 -7 0 -13 4 -13 9 0 5 -16 16 -35 25 -19 9
-32 20 -29 25 3 4 -2 8 -10 8 -9 0 -24 8 -35 19 -10 10 -23 20 -29 22 -12 4
-76 60 -180 157 -36 34 -70 62 -74 62 -5 0 -8 5 -8 11 0 6 -27 37 -60 69 -33
32 -60 61 -60 64 0 7 -26 39 -63 78 -15 16 -53 64 -85 106 -31 42 -61 80 -65
83 -5 3 -7 9 -5 12 1 4 -5 15 -14 26 -9 11 -14 22 -11 25 4 3 1 6 -6 6 -7 0
-9 5 -6 10 3 6 1 10 -5 10 -7 0 -10 6 -7 14 3 8 3 16 -1 18 -4 2 -18 28 -31
58 -13 30 -28 63 -33 74 -7 13 -6 16 2 11 14 -9 -10 36 -25 47 -6 5 -4 8 5 8
10 0 11 3 4 8 -7 4 -13 23 -15 42 -2 19 -5 40 -8 45 -13 25 -18 186 -6 205 3
6 4 10 1 10 -3 0 -8 -5 -11 -10z"/>
<path d="M9078 3409 c-20 -11 -24 -29 -6 -29 6 0 8 3 5 7 -4 3 1 12 11 19 20
16 14 18 -10 3z"/>
<path d="M2968 3343 c-10 -3 -18 -9 -18 -14 0 -5 -7 -9 -15 -9 -8 0 -15 -5
-15 -10 0 -6 -8 -14 -17 -17 -10 -4 -29 -15 -42 -25 -13 -10 -27 -16 -30 -13
-4 2 -13 -4 -21 -15 -7 -10 -19 -16 -26 -13 -8 3 -17 -2 -20 -11 -3 -9 -10
-13 -15 -10 -5 3 -9 1 -9 -5 0 -6 -11 -13 -24 -17 -14 -3 -27 -12 -30 -21 -3
-8 -10 -12 -14 -9 -5 3 -18 -1 -28 -9 -10 -8 -27 -15 -36 -15 -10 0 -18 -4
-18 -10 0 -5 -4 -10 -9 -10 -6 0 -49 -19 -97 -42 -48 -23 -93 -41 -101 -41 -7
0 -13 -4 -13 -9 0 -4 -11 -8 -23 -8 -13 0 -27 -3 -31 -7 -4 -5 -12 -9 -17 -9
-5 -1 -11 -3 -14 -4 -6 -3 -6 -3 -55 -14 -19 -5 -39 -11 -45 -14 -5 -4 -19 -8
-30 -10 -37 -7 -40 -8 -52 -15 -7 -5 -17 -6 -22 -2 -5 3 -12 1 -16 -5 -4 -6
-11 -8 -16 -5 -5 4 -15 3 -21 -2 -12 -7 -18 -9 -63 -18 -61 -12 -84 -18 -125
-31 -25 -9 -53 -16 -62 -17 -10 -1 -18 -5 -18 -9 0 -4 -9 -5 -19 -3 -10 2 -28
-5 -38 -15 -11 -9 -29 -21 -41 -24 -12 -4 -22 -12 -22 -17 0 -5 -9 -9 -21 -9
-11 0 -18 -4 -15 -8 3 -5 -2 -18 -12 -29 -22 -25 -40 -52 -52 -82 -6 -13 -19
-36 -30 -51 -11 -16 -20 -35 -20 -44 0 -9 -3 -16 -8 -16 -4 0 -13 -15 -20 -32
-7 -18 -25 -59 -41 -90 -15 -32 -24 -55 -19 -51 6 3 2 -6 -7 -20 -9 -14 -18
-32 -19 -39 -2 -7 -10 -29 -18 -48 -30 -69 -37 -93 -40 -137 -1 -7 -6 -13 -11
-13 -6 0 -8 -2 -5 -6 3 -3 0 -26 -8 -51 -8 -25 -11 -49 -8 -54 3 -5 0 -9 -7
-9 -7 0 -9 -3 -6 -6 3 -4 1 -16 -5 -28 -7 -11 -14 -34 -15 -51 l-3 -30 17 30
c9 17 15 31 14 33 -1 1 5 10 14 18 8 9 13 20 10 25 -4 5 -1 9 4 9 6 0 10 3 9
8 -4 11 53 102 64 102 5 0 8 5 6 12 -3 7 5 22 16 35 33 35 46 52 46 59 0 12
111 154 121 154 6 0 8 4 4 9 -3 5 6 18 20 30 15 11 45 44 68 73 23 29 53 62
67 73 14 11 33 28 42 38 10 9 19 17 21 16 9 -2 46 18 70 38 16 13 33 21 38 17
5 -3 9 -1 9 5 0 5 9 8 20 6 11 -2 20 0 20 4 0 5 10 8 23 7 12 -1 25 2 28 7 3
5 12 9 20 11 8 1 25 8 39 16 14 8 29 14 33 15 4 0 12 7 17 15 5 8 10 12 10 7
0 -4 17 0 38 9 20 9 42 17 47 18 6 1 28 11 50 21 22 10 42 19 45 20 40 14 130
68 130 78 0 4 9 7 19 7 11 0 26 7 35 15 8 9 18 16 20 16 16 0 105 47 99 53 -3
3 1 6 9 6 9 0 21 7 28 15 7 9 15 13 18 10 3 -2 13 5 23 17 11 11 19 17 19 13
0 -5 7 0 15 11 8 10 15 15 15 11 0 -5 7 -1 16 7 8 9 21 13 27 9 7 -3 9 -3 5 2
-5 5 9 19 30 33 43 29 136 104 140 114 2 3 12 16 22 28 10 12 16 28 13 37 -3
8 0 19 7 23 15 9 1 18 -22 13z"/>
<path d="M2938 2982 c-5 -13 -85 -72 -97 -72 -6 0 -11 -3 -11 -8 0 -4 -18 -18
-40 -32 -22 -14 -40 -28 -40 -33 0 -4 -4 -6 -8 -3 -5 3 -20 -6 -35 -20 -15
-14 -27 -21 -27 -17 0 4 -4 3 -8 -4 -4 -6 -39 -34 -77 -62 -97 -71 -114 -84
-136 -103 -10 -10 -25 -18 -33 -18 -8 0 -17 -7 -20 -16 -4 -9 -9 -14 -13 -10
-3 3 -13 -3 -20 -14 -8 -11 -18 -18 -23 -15 -4 3 -10 -2 -14 -10 -3 -8 -11
-15 -17 -15 -6 0 -33 -18 -60 -41 -27 -22 -49 -38 -49 -34 0 3 -7 -1 -16 -9
-8 -9 -21 -13 -27 -9 -7 3 -9 3 -5 -2 7 -7 -14 -35 -27 -35 -4 0 -13 -7 -22
-15 -8 -8 -19 -13 -24 -10 -5 4 -9 2 -9 -4 0 -5 -17 -19 -38 -31 -58 -33 -70
-61 -66 -155 4 -104 11 -174 19 -205 4 -14 8 -42 9 -62 0 -21 4 -38 7 -38 3 0
4 -16 3 -35 -2 -22 1 -35 9 -35 7 0 6 -4 -3 -10 -12 -8 -12 -10 -1 -10 8 0 12
-2 9 -6 -3 -3 -2 -22 3 -42 14 -57 18 -73 23 -120 3 -24 10 -49 15 -56 6 -7 8
-16 4 -19 -3 -4 -1 -12 4 -19 10 -12 32 -93 35 -125 1 -7 4 -13 8 -13 3 0 6
-8 7 -18 1 -10 15 -58 32 -108 17 -49 31 -97 31 -106 0 -10 4 -18 8 -18 4 0 8
-8 9 -17 2 -30 35 -113 44 -113 5 0 6 17 2 37 -8 47 -11 424 -4 438 3 6 6 28
6 50 1 23 5 47 10 54 6 10 4 12 -5 6 -10 -6 -11 -4 -4 6 5 8 10 25 11 39 2 25
10 63 13 68 2 1 4 16 5 32 1 17 4 31 5 33 1 1 3 13 5 27 5 40 12 65 39 138 14
39 22 73 19 76 -4 3 -2 6 4 6 5 0 10 6 11 13 2 31 13 61 24 69 7 4 9 8 4 8 -5
0 -2 7 5 16 7 9 14 23 16 32 1 9 7 18 13 20 5 2 8 8 4 13 -3 5 -1 9 4 9 5 0 9
6 9 13 0 14 44 109 54 117 4 3 10 16 14 30 4 14 15 30 24 37 9 7 13 13 9 13
-4 0 4 12 17 26 14 15 22 30 20 34 -3 5 -2 10 3 12 4 1 20 24 35 50 15 26 33
53 40 60 16 19 35 48 47 76 5 12 15 22 21 22 7 0 10 2 7 5 -3 3 6 18 21 33 15
15 37 41 49 57 13 17 20 23 16 15 -4 -9 -3 -12 2 -7 5 5 10 13 10 18 1 5 2 14
3 19 0 6 9 10 18 10 9 0 14 3 11 6 -3 3 4 16 16 29 37 40 45 53 39 59 -4 3 1
6 10 6 11 0 17 8 17 25 0 25 -5 32 -12 17z"/>
<path d="M3950 2976 c0 -2 8 -10 18 -17 15 -13 16 -12 3 4 -13 16 -21 21 -21
13z"/>
<path d="M3485 2807 c-4 -9 -4 -20 -1 -26 4 -5 1 -13 -5 -17 -7 -4 -8 -9 -1
-13 6 -3 13 -26 16 -51 5 -44 13 -85 16 -85 3 0 10 -29 19 -80 5 -27 17 -79
26 -115 10 -36 18 -71 18 -77 0 -7 4 -13 8 -13 4 0 6 -8 4 -17 -1 -10 0 -22 4
-28 3 -5 6 -13 7 -17 1 -5 2 -9 3 -10 2 -2 4 -14 7 -28 2 -14 7 -32 10 -40 4
-8 8 -26 10 -39 2 -13 6 -31 10 -40 4 -9 8 -25 9 -37 2 -11 9 -40 16 -65 7
-24 13 -48 14 -54 0 -5 4 -30 9 -55 13 -76 22 -161 31 -275 2 -22 4 -40 5 -40
1 0 3 -10 6 -22 8 -44 9 -48 17 -54 5 -3 9 -13 11 -21 4 -33 76 -118 99 -118
5 0 5 -4 2 -10 -3 -5 1 -10 9 -10 9 0 16 -4 16 -10 0 -5 7 -10 15 -10 8 0 15
-4 15 -10 0 -5 6 -10 14 -10 8 0 16 -4 18 -8 5 -13 150 -106 188 -121 19 -8
60 -26 90 -41 70 -35 159 -70 176 -70 8 0 14 -4 14 -10 0 -5 4 -10 9 -10 5 0
26 -8 47 -17 22 -9 48 -18 59 -20 10 -2 23 -9 27 -16 4 -6 8 -8 8 -3 0 4 11 1
25 -8 14 -9 25 -14 25 -11 0 3 13 -1 29 -9 16 -9 31 -12 35 -9 3 4 6 1 6 -5 0
-6 7 -9 15 -6 8 4 15 2 15 -3 0 -5 12 -10 26 -11 15 -1 32 -6 38 -12 7 -5 27
-12 46 -15 19 -3 71 -17 114 -30 43 -13 83 -22 88 -19 4 3 8 1 8 -4 0 -6 9 -8
20 -5 13 3 20 0 20 -8 0 -11 2 -11 10 1 6 10 10 11 10 3 0 -7 12 -13 26 -13
14 0 33 -4 43 -10 10 -5 35 -10 55 -12 20 -1 36 -5 36 -9 0 -4 8 -8 18 -8 9 0
36 -2 60 -4 36 -3 41 -1 29 10 -7 7 -23 15 -36 18 -13 2 -29 9 -35 15 -7 5
-16 7 -20 3 -4 -4 -11 -2 -15 5 -4 7 -21 14 -38 15 -17 1 -29 5 -27 8 2 3 -15
12 -36 19 -22 7 -40 17 -40 22 0 5 -4 6 -10 3 -6 -3 -10 -1 -10 5 0 6 -4 8
-10 5 -5 -3 -10 -1 -10 4 0 6 -9 11 -20 11 -11 0 -20 5 -20 11 0 5 -4 8 -9 5
-5 -3 -14 1 -21 9 -7 8 -21 15 -31 15 -11 0 -19 5 -19 10 0 6 -6 10 -13 10 -7
0 -30 15 -52 34 -22 19 -42 34 -45 33 -9 -3 -81 47 -115 81 -8 6 -18 12 -24
12 -6 0 -11 7 -11 15 0 8 -3 14 -7 13 -11 -3 -73 35 -73 44 0 4 -4 8 -10 8
-26 0 -376 357 -392 401 -4 10 -12 19 -18 19 -6 0 -8 5 -5 10 3 6 -1 10 -9 10
-9 0 -16 5 -16 10 0 6 -11 23 -25 38 -14 15 -31 39 -38 55 -6 15 -15 27 -18
27 -4 0 -26 31 -50 70 -24 38 -47 70 -51 70 -5 0 -8 9 -8 20 0 11 -4 20 -10
20 -5 0 -7 7 -4 15 4 8 1 15 -5 15 -6 0 -11 7 -11 15 0 8 -4 15 -10 15 -5 0
-10 3 -9 8 3 17 -14 51 -22 46 -5 -3 -9 -1 -9 4 0 6 -16 38 -35 72 -19 34 -38
73 -41 86 -3 13 -10 24 -14 24 -5 0 -11 13 -15 29 -3 16 -13 35 -21 42 -8 6
-14 18 -14 25 0 8 -4 14 -10 14 -5 0 -10 9 -10 20 0 11 -4 20 -8 20 -5 0 -9 6
-9 13 0 6 -12 37 -26 67 -14 30 -34 87 -46 125 -19 64 -24 72 -66 97 -25 15
-54 42 -65 60 -15 26 -20 29 -25 15z"/>
<path d="M3003 2778 c-1 -7 -5 -26 -10 -43 -5 -16 -9 -37 -8 -45 0 -8 -2 -17
-5 -20 -5 -4 -11 -25 -36 -130 -4 -14 -7 -31 -7 -37 0 -7 -4 -13 -8 -13 -4 0
-6 -8 -4 -17 1 -10 -2 -24 -8 -30 -5 -7 -7 -13 -3 -13 3 0 0 -16 -8 -35 -8
-19 -13 -35 -11 -35 3 0 0 -11 -5 -26 -6 -14 -12 -37 -15 -52 -3 -15 -7 -38
-10 -52 -8 -42 -18 -104 -18 -120 0 -8 -4 -21 -10 -27 -6 -8 -6 -13 0 -13 8 0
10 -32 3 -50 -6 -15 -4 -36 4 -47 5 -9 4 -13 -4 -13 -10 0 -10 -3 -1 -14 9
-11 9 -16 0 -21 -8 -6 -7 -10 2 -16 9 -6 10 -9 2 -9 -11 0 -10 -34 2 -67 2 -7
0 -15 -4 -17 -5 -3 -7 -16 -5 -28 9 -64 17 -94 25 -103 5 -5 9 -17 9 -26 0 -9
7 -22 15 -29 8 -7 12 -16 9 -21 -3 -5 0 -9 5 -9 6 0 10 -3 8 -8 -1 -4 17 -37
40 -72 56 -86 133 -194 133 -186 0 3 17 -13 37 -36 60 -68 173 -178 184 -178
5 0 9 -7 9 -16 0 -8 4 -13 8 -10 5 3 18 -5 29 -17 17 -20 95 -90 162 -147 13
-11 28 -20 33 -20 4 0 8 -8 8 -17 0 -9 3 -13 6 -10 4 4 17 -5 30 -20 12 -15
32 -28 43 -30 16 -2 14 4 -15 35 -18 20 -34 40 -34 44 0 4 -6 13 -13 20 -7 7
-37 49 -67 93 -30 44 -60 86 -68 94 -15 15 -36 61 -34 74 1 4 -3 7 -8 7 -6 0
-10 7 -10 15 0 8 -4 15 -10 15 -5 0 -9 3 -8 8 2 10 -24 64 -39 80 -7 7 -13 22
-13 32 0 10 -4 22 -10 25 -5 3 -10 14 -10 24 0 10 -6 24 -14 31 -8 6 -12 18
-9 26 3 8 1 14 -4 14 -5 0 -16 22 -23 50 -7 28 -17 50 -22 50 -4 0 -8 9 -8 20
0 12 -7 34 -15 49 -8 16 -16 39 -18 52 -3 13 -12 48 -21 78 -8 29 -13 57 -10
62 3 5 1 9 -5 9 -6 0 -8 7 -5 15 4 8 2 15 -2 15 -5 0 -9 10 -10 23 0 12 -4 33
-7 47 -23 96 -32 143 -32 170 0 14 -3 27 -6 30 -4 3 -9 29 -12 58 -3 29 -8 56
-11 59 -3 3 -1 12 5 20 9 10 8 13 -1 13 -7 0 -10 8 -7 20 3 10 0 21 -7 24 -7
3 -7 5 2 5 8 1 10 6 6 13 -5 7 -9 28 -10 48 -2 19 -5 50 -7 68 -3 19 0 32 7
32 6 0 5 4 -3 9 -11 7 -14 39 -15 135 -1 73 -6 130 -12 136 -8 8 -11 7 -11 -2z"/>
<path d="M3465 1620 c-3 -5 -1 -10 5 -10 6 0 8 -4 5 -10 -3 -5 -2 -10 4 -10 5
0 13 -9 16 -21 4 -11 9 -19 11 -16 5 4 -24 77 -31 77 -2 0 -7 -4 -10 -10z"/>
</g>
</svg>
